<svg xmlns="http://www.w3.org/2000/svg" width="55" height="40" viewBox="0 0 55 40" fill="none"><path d="M52.8566 0C50.7138 2.18182 48.5709 4.36364 46.4281 5.81819C42.1423 10.1818 37.8566 14.5455 33.5709 18.9091C29.9995 22.5455 25.7138 22.5455 21.428 18.9091C15.7137 13.0909 9.28517 6.54546 3.57088 0.727273H2.8566C19.2852 0 35.7138 0 52.8566 0Z" fill="white"></path><path d="M2.8566 40C8.57089 34.1818 14.2852 29.0909 19.9995 23.2727C24.9995 26.9091 30.7138 26.9091 35.7138 23.2727C40.7138 29.0909 46.4281 34.1818 52.1423 40C35.7138 40 19.2852 40 2.8566 40Z" fill="white"></path><path d="M0 37.091C0 25.4547 0 14.5456 0 3.63647C5.71429 8.72739 10.7143 14.5456 16.4286 20.3638C11.4286 25.4547 5.71429 31.2729 0 37.091Z" fill="white"></path><path d="M54.9996 37.091C49.9996 31.2729 44.2853 25.4547 38.571 20.3638C44.2853 14.5456 49.9996 8.72739 54.9996 3.63647C54.9996 14.5456 54.9996 25.4547 54.9996 37.091Z" fill="white"></path></svg>