<svg xmlns="http://www.w3.org/2000/svg" xmlns:xlink="http://www.w3.org/1999/xlink" id="Layer_1" x="0px" y="0px" viewBox="0 0 300 300" style="enable-background:new 0 0 300 300;" xml:space="preserve">
<g>
	<path d="M37.82,68.86c75.91,0,150.44,0,224.97,0c0.58,0.78,1.17,1.57,1.75,2.35c-1.76,0.93-3.83,1.53-5.23,2.84   c-29.64,27.79-59.19,55.66-88.78,83.5c-12.64,11.89-26.38,11.91-38.95,0.08c-29.7-27.96-59.41-55.92-89.1-83.9   C41.2,72.53,40.05,71.2,37.82,68.86z"></path>
	<path d="M263.72,238.93c-5.71,2.37-219.54,2.39-225.97-0.21c29.22-21.79,58.07-43.3,87.17-65.01c8.11,6.32,17.06,9.76,27.31,9.42   c8.06-0.27,15.26-2.82,21.97-7.23c1.26-0.83,3.94-1.18,4.97-0.42c27.85,20.55,55.58,41.28,83.31,61.99   C262.96,237.83,263.28,238.4,263.72,238.93z"></path>
	<path d="M116.75,163.95C87,186.1,57.94,207.74,27.85,230.14c-0.82-4.44-1.96-7.78-1.97-11.13c-0.12-43.82-0.09-87.64-0.05-131.46   c0-2.26,0.53-4.53,1-8.28C57.28,107.93,86.75,135.69,116.75,163.95z"></path>
	<path d="M185.24,163.95c29.99-28.25,59.31-55.87,89.58-84.38c0.57,3.05,1.3,5.16,1.3,7.27c0.07,44.32,0.1,88.64-0.01,132.96   c-0.01,3.04-1.15,6.08-2.01,10.3C244.05,207.72,214.92,186.04,185.24,163.95z"></path>
</g>
</svg>