<svg xmlns="http://www.w3.org/2000/svg" width="37" height="25" viewBox="0 0 37 25" fill="none"><g clip-path="url(#clip0)"><path d="M1.75024 0C12.7946 0 23.6382 0 34.4817 0C34.5661 0.113484 34.652 0.228423 34.7363 0.341908C34.4803 0.477216 34.1791 0.564511 33.9754 0.755107C29.663 4.79835 25.3637 8.85323 21.0586 12.9037C19.2195 14.6336 17.2205 14.6366 15.3916 12.9154C11.0705 8.84741 6.74792 4.77943 2.42824 0.708549C2.24201 0.533958 2.07469 0.340453 1.75024 0Z" fill="black"></path><path d="M34.617 24.7439C33.7863 25.0887 2.67557 25.0916 1.74005 24.7134C5.99135 21.5431 10.1888 18.4135 14.4226 15.2549C15.6026 16.1744 16.9047 16.6749 18.396 16.6254C19.5687 16.5861 20.6163 16.2151 21.5925 15.5735C21.7758 15.4528 22.1658 15.4018 22.3156 15.5124C26.3676 18.5023 30.4021 21.5183 34.4366 24.5315C34.5064 24.5839 34.553 24.6668 34.617 24.7439Z" fill="black"></path><path d="M13.234 13.835C8.90558 17.0576 4.67757 20.2061 0.299693 23.4651C0.18039 22.8191 0.0145279 22.3332 0.013073 21.8458C-0.00438611 15.4703 -2.13285e-05 9.09482 0.00579838 2.71933C0.00579838 2.39051 0.0829095 2.06025 0.151291 1.51465C4.58154 5.68447 8.86921 9.72334 13.234 13.835Z" fill="black"></path><path d="M23.1988 13.8348C27.5621 9.72461 31.828 5.7061 36.232 1.55811C36.315 2.00186 36.4212 2.30885 36.4212 2.61584C36.4314 9.06407 36.4357 15.5123 36.4197 21.9605C36.4183 22.4028 36.2524 22.8451 36.1273 23.4591C31.7552 20.203 27.517 17.0487 23.1988 13.8348Z" fill="black"></path></g><defs><clipPath id="clip0"><rect width="36.4299" height="25" fill="white"></rect></clipPath></defs></svg>