<?xml version="1.0" standalone="no"?>
<!DOCTYPE svg PUBLIC "-//W3C//DTD SVG 1.1//EN" "http://www.w3.org/Graphics/SVG/1.1/DTD/svg11.dtd" >
<svg xmlns="http://www.w3.org/2000/svg" xmlns:xlink="http://www.w3.org/1999/xlink" version="1.1">
<metadata>
Created by FontForge 20170731 at Sun Aug 30 15:49:22 2020
 By Aleksey,,,
Copyright (c) 2016. Arca Majora 3 is a trademark of Alfredo Marco Pradil. All rights reserved.
</metadata>
<defs>
<font id="ArcaMajora3-Heavy" horiz-adv-x="0" >
  <font-face 
    font-family="Arca Majora 3 Heavy"
    font-weight="900"
    font-stretch="normal"
    units-per-em="2048"
    panose-1="0 0 10 0 0 0 0 0 0 0"
    ascent="1638"
    descent="-410"
    x-height="1114"
    cap-height="1659"
    bbox="-1378 -608 2517 2660"
    underline-thickness="184"
    underline-position="-388"
    unicode-range="U+000D-F8FF"
  />
<missing-glyph horiz-adv-x="1179" 
d="M147 1618h885v-1577h-885v1577zM188 1577v-1495h803v1495h-803z" />
    <glyph glyph-name=".notdef" horiz-adv-x="1179" 
d="M147 1618h885v-1577h-885v1577zM188 1577v-1495h803v1495h-803z" />
    <glyph glyph-name=".null" 
 />
    <glyph glyph-name="nonmarkingreturn" horiz-adv-x="682" 
 />
    <glyph glyph-name="NULL" horiz-adv-x="92" 
 />
    <glyph glyph-name="NULL" horiz-adv-x="92" 
 />
    <glyph glyph-name="CR" unicode="&#xd;" horiz-adv-x="235" 
 />
    <glyph glyph-name="space" unicode=" " horiz-adv-x="665" 
 />
    <glyph glyph-name="exclam" unicode="!" horiz-adv-x="833" 
d="M231 588v1071h369v-1071h-369zM416 -20q-100 0 -169 68.5t-69 168.5q0 98 70 169t168 71q99 0 169 -70.5t70 -169.5q0 -101 -68 -169t-171 -68z" />
    <glyph glyph-name="quotedbl" unicode="&#x22;" horiz-adv-x="1181" 
d="M172 866v793h328v-793h-328zM684 866v793h328v-793h-328z" />
    <glyph glyph-name="numbersign" unicode="#" horiz-adv-x="1558" 
d="M293 0l43 317h-207l41 283h207l39 287h-207l41 282h205l45 318h301l-45 -318h166l45 318h301l-45 -318h207l-37 -282h-209l-39 -287h205l-35 -283h-211l-43 -317h-301l43 317h-166l-43 -317h-301zM678 600h166l39 287h-166z" />
    <glyph glyph-name="dollar" unicode="$" horiz-adv-x="1208" 
d="M1143 504q0 -203 -120.5 -345t-315.5 -173v-142h-267v160q-146 42 -251 149t-138 253l322 145q10 -102 74 -163.5t157 -61.5q85 0 138 50t53 132q0 43 -22.5 78t-60 61t-86.5 49.5t-103 48t-108 52t-103 67t-86.5 87t-60 117t-22.5 153.5q0 154 80.5 269t216.5 161v164
h267v-144q131 -22 230 -104t142 -205l-303 -135q-19 55 -60 88t-95 33q-60 0 -96 -33t-36 -86q0 -37 22.5 -67.5t60 -54t87 -46.5t103.5 -48.5t108 -55t103.5 -72t87 -94t60 -125.5t22.5 -162z" />
    <glyph glyph-name="percent" unicode="%" horiz-adv-x="1615" 
d="M410 942q-149 0 -254 108t-105 261q0 152 105 260t254 108t253.5 -107.5t104.5 -260.5t-104.5 -261t-253.5 -108zM100 -2l1041 1661h370l-1040 -1661h-371zM410 1214q43 0 69.5 27t26.5 70t-26.5 69.5t-69.5 26.5q-41 0 -69 -27.5t-28 -68.5t28 -69t69 -28zM1206 -20
q-151 0 -255.5 107t-104.5 261t104.5 261.5t255.5 107.5q149 0 254 -108t105 -261q0 -152 -105.5 -260t-253.5 -108zM1206 252q42 0 70.5 27.5t28.5 68.5t-28.5 68.5t-70.5 27.5q-43 0 -71.5 -27t-28.5 -69q0 -41 28.5 -68.5t71.5 -27.5z" />
    <glyph glyph-name="ampersand" unicode="&#x26;" horiz-adv-x="1447" 
d="M1278 -23l-215 216l-29 -29q-156 -164 -389 -164q-151 0 -278 74t-200 202.5t-73 282.5q0 230 162 397l37 39q-64 104 -64 230q0 177 120.5 298.5t295.5 121.5q168 0 288 -119t120 -285q0 -84 -34 -160.5t-95 -130.5l-219 215q32 29 32 76q0 41 -26.5 64.5t-69.5 23.5
t-69.5 -29t-26.5 -79q0 -44 28 -72l490 -498l219 221l225 -227l-219 -221l215 -219zM645 324q93 0 166 73l27 27l-328 334q-54 -57 -76 -98.5t-22 -100.5q0 -100 67.5 -167.5t165.5 -67.5z" />
    <glyph glyph-name="quotesingle" unicode="'" horiz-adv-x="710" 
d="M193 866v793h327v-793h-327z" />
    <glyph glyph-name="parenleft" unicode="(" horiz-adv-x="897" 
d="M809 1907v-338q-85 30 -157 -58t-114 -269.5t-42 -412.5t41.5 -411.5t113.5 -269t158 -58.5v-338q-193 -17 -345.5 116.5t-236.5 385t-84 575.5q0 325 84 576.5t236.5 385t345.5 116.5z" />
    <glyph glyph-name="parenright" unicode=")" horiz-adv-x="897" 
d="M82 1907q193 17 345.5 -116.5t236.5 -385t84 -576.5q0 -324 -84 -575.5t-236.5 -385t-345.5 -116.5v338q86 -30 158 58.5t113.5 269t41.5 411.5t-42 412.5t-114 269.5t-157 58v338z" />
    <glyph glyph-name="asterisk" unicode="*" horiz-adv-x="999" 
d="M401 971l-208 121l141 192l-238 -24v239l238 -24l-141 192l208 121l99 -217l96 217l213 -121l-145 -192l239 24v-239l-239 24l145 -192l-213 -121l-96 217z" />
    <glyph glyph-name="plus" unicode="+" horiz-adv-x="1562" 
d="M621 264v408h-437v315h437v410h319v-410h438v-315h-438v-408h-319z" />
    <glyph glyph-name="comma" unicode="," horiz-adv-x="550" 
d="M115 -279v691h405l-162 -691h-243z" />
    <glyph glyph-name="hyphen" unicode="-" horiz-adv-x="1273" 
d="M178 442v316h918v-316h-918z" />
    <glyph glyph-name="period" unicode="." horiz-adv-x="702" 
d="M350 -20q-100 0 -168.5 68.5t-68.5 168.5q0 99 69.5 169.5t167.5 70.5q99 0 169.5 -70.5t70.5 -169.5q0 -101 -68.5 -169t-171.5 -68z" />
    <glyph glyph-name="slash" unicode="/" horiz-adv-x="1210" 
d="M-43 -410l885 2130h383l-885 -2130h-383z" />
    <glyph glyph-name="zero" unicode="0" horiz-adv-x="1290" 
d="M645 -25q-274 0 -430 216t-156 649q0 419 154.5 629t431.5 210t431.5 -210t154.5 -629q0 -433 -156 -649t-430 -216zM645 322q59 0 101 24t74 81t47.5 159.5t15.5 253.5q0 184 -28.5 295t-79.5 154.5t-130 43.5t-129.5 -43.5t-79 -154.5t-28.5 -295q0 -151 15.5 -253.5
t47.5 -160t73.5 -81t100.5 -23.5z" />
    <glyph glyph-name="one" unicode="1" horiz-adv-x="1290" 
d="M487 0v1313h-272v346h623v-1659h-351z" />
    <glyph glyph-name="two" unicode="2" horiz-adv-x="1290" 
d="M-20 0l770 1022q36 48 36 115q0 78 -54.5 132t-133.5 54q-80 0 -134 -53.5t-54 -132.5h-349q0 145 72.5 268.5t196.5 195.5t268 72t268 -72.5t196.5 -196t72.5 -267.5q0 -184 -109 -326l-350 -463h469v-348h-1165z" />
    <glyph glyph-name="three" unicode="3" horiz-adv-x="1290" 
d="M995 922q90 -67 141.5 -165.5t51.5 -221.5q0 -112 -44 -215t-119 -177.5t-178 -118.5t-216 -44q-114 0 -217 44t-177.5 119t-118.5 178t-44 216h348q0 -91 55 -150t154 -59t154 59t55 148q0 101 -59 164t-150 63h-68v276h68q59 0 101 42.5t42 119.5q0 74 -48.5 113
t-113.5 39q-74 0 -117.5 -46t-43.5 -114h-353q0 208 146 347.5t368 139.5q109 0 201.5 -36.5t155.5 -99.5t98 -148t35 -181q0 -169 -107 -292z" />
    <glyph glyph-name="four" unicode="4" horiz-adv-x="1290" 
d="M1067 623h182v-347h-182v-276h-348v276h-688v326l626 1057h410v-1036zM360 623h359v616z" />
    <glyph glyph-name="five" unicode="5" horiz-adv-x="1290" 
d="M631 1092q152 0 280.5 -73.5t203.5 -201.5t75 -280q0 -153 -75 -282.5t-203.5 -204.5t-280.5 -75q-187 0 -337 111.5t-202 292.5l330 131q10 -78 70 -128t139 -50q88 0 149.5 62t61.5 151q0 88 -61.5 149.5t-149.5 61.5q-114 0 -182 -99l-256 203l135 799h780v-346h-498
l-30 -226q25 5 51 5z" />
    <glyph glyph-name="six" unicode="6" horiz-adv-x="1290" 
d="M643 -23q-151 0 -278 76t-200 207t-73 287q0 172 131 381l461 733h401l-344 -553q200 -34 328.5 -191.5t128.5 -373.5q0 -115 -44 -219.5t-118 -180.5t-177 -121t-216 -45zM645 326q92 0 156.5 64.5t64.5 156.5t-64.5 156.5t-156.5 64.5t-156.5 -64.5t-64.5 -156.5
t64.5 -156.5t156.5 -64.5z" />
    <glyph glyph-name="seven" unicode="7" horiz-adv-x="1290" 
d="M111 0l663 1313h-672v346h1225l-821 -1659h-395z" />
    <glyph glyph-name="eight" unicode="8" horiz-adv-x="1290" 
d="M1026 938q83 -76 129.5 -180t46.5 -221q0 -113 -44 -216t-119 -178t-178 -119t-216 -44t-216 44t-178 119t-119 178t-44 216q0 117 46.5 221t129.5 180q-90 123 -90 276q0 192 138 328.5t333 136.5t333 -136.5t138 -328.5q0 -153 -90 -276zM645 1358q-62 0 -105.5 -43.5
t-43.5 -104.5q0 -63 43.5 -106t105.5 -43t106 43t44 106q0 62 -43.5 105t-106.5 43zM645 328q88 0 148.5 60.5t60.5 148.5q0 85 -61.5 144.5t-147.5 59.5t-147.5 -59.5t-61.5 -144.5q0 -88 60.5 -148.5t148.5 -60.5z" />
    <glyph glyph-name="nine" unicode="9" horiz-adv-x="1290" 
d="M205 0l344 553q-200 35 -328.5 193t-128.5 374q0 154 74 283.5t202 204.5t279 75q147 0 274 -74t202 -199t75 -269q0 -202 -131 -408l-461 -733h-401zM645 893q92 0 156.5 64.5t64.5 156.5t-64.5 156.5t-156.5 64.5t-156.5 -64.5t-64.5 -156.5t64.5 -156.5t156.5 -64.5z
" />
    <glyph glyph-name="colon" unicode=":" horiz-adv-x="845" 
d="M422 846q-100 0 -169 68.5t-69 168.5q0 98 70 169t168 71q99 0 169.5 -70.5t70.5 -169.5q0 -101 -68.5 -169t-171.5 -68zM422 -20q-100 0 -169 68.5t-69 168.5q0 98 70 169t168 71q99 0 169.5 -70.5t70.5 -169.5q0 -101 -68.5 -169t-171.5 -68z" />
    <glyph glyph-name="semicolon" unicode=";" horiz-adv-x="835" 
d="M401 846q-100 0 -168.5 68.5t-68.5 168.5q0 99 69.5 169.5t167.5 70.5q99 0 169.5 -70.5t70.5 -169.5q0 -101 -68.5 -169t-171.5 -68zM205 -279v691h403l-116 -691h-287z" />
    <glyph glyph-name="less" unicode="&#x3c;" horiz-adv-x="1228" 
d="M1051 252l-873 463v233l873 424v-354l-394 -195l394 -207v-364z" />
    <glyph glyph-name="equal" unicode="=" horiz-adv-x="1286" 
d="M184 930v315h918v-315h-918zM184 418v315h918v-315h-918z" />
    <glyph glyph-name="greater" unicode="&#x3e;" horiz-adv-x="1228" 
d="M178 252v364l393 207l-393 195v354l873 -424v-233z" />
    <glyph glyph-name="question" unicode="?" horiz-adv-x="1142" 
d="M393 606v182q0 71 15.5 125t40.5 86t55 56t60.5 41t55.5 34t40.5 42t15.5 59q0 121 -111 121q-67 0 -96 -40.5t-29 -117.5h-348q0 219 120 352t347 133q203 0 334 -121t131 -323q0 -67 -15.5 -118.5t-40.5 -83.5t-55.5 -57.5t-60.5 -46t-55 -41.5t-40.5 -51.5
t-15.5 -70.5v-160h-348zM569 -20q-101 0 -170 68t-69 167q0 100 69.5 171t167.5 71t169 -71t71 -171q0 -98 -69 -166.5t-169 -68.5z" />
    <glyph glyph-name="at" unicode="@" horiz-adv-x="1841" 
d="M1380 1016q-29 -154 -92 -457q-26 -123 -14.5 -168t65.5 -45q88 0 144.5 96.5t56.5 249.5q0 250 -158.5 397.5t-427.5 147.5q-278 0 -455 -180.5t-177 -464.5q0 -283 178 -457t465 -174q305 0 512 174l118 -160q-262 -215 -645 -215q-186 0 -345.5 62t-271.5 172
t-175.5 265t-63.5 335q0 175 67 331.5t181.5 268t274.5 177t339 65.5q231 0 411 -91t280 -257t100 -379q0 -250 -123 -404.5t-321 -154.5q-76 0 -132 32.5t-79 91.5q-46 -56 -117 -89t-146 -33q-152 0 -244.5 104t-92.5 274q0 141 60 260t165 188t231 69q70 0 127.5 -25
t93.5 -68l15 62h196zM1096 653q3 203 -148 203q-97 0 -164 -97t-67 -235q0 -84 38 -132t105 -48q48 0 87.5 19.5t65.5 51t45 73t27.5 83t10.5 82.5z" />
    <glyph glyph-name="A" unicode="A" horiz-adv-x="1564" 
d="M1169 0l-94 225h-586l-94 -225h-393l780 1700l781 -1700h-394zM618 532h328l-164 394z" />
    <glyph glyph-name="B" unicode="B" horiz-adv-x="1382" 
d="M147 0v1659h580q136 0 251.5 -67.5t183 -183t67.5 -251.5q0 -151 -88 -264q94 -65 147 -167.5t53 -223.5q0 -136 -67 -251.5t-182.5 -183t-251.5 -67.5h-693zM496 995h231q65 0 109.5 45t44.5 111t-45 113t-109 47h-231v-316zM496 348h344q64 0 108.5 47t44.5 113
t-44 111t-109 45h-344v-316z" />
    <glyph glyph-name="C" unicode="C" horiz-adv-x="1464" 
d="M954 -20q-177 0 -336 67t-274 180.5t-182.5 271.5t-67.5 332t67.5 331t182.5 270t274.5 180t335.5 67q214 0 408 -108v-449q-99 110 -197.5 157.5t-214.5 47.5q-212 0 -358 -144.5t-146 -353.5t145 -353t357 -144q119 0 218.5 49.5t195.5 157.5v-451q-194 -108 -408 -108
z" />
    <glyph glyph-name="D" unicode="D" horiz-adv-x="1570" 
d="M147 0v1659h500q135 0 262 -42t229 -118.5t178.5 -178.5t118.5 -229t42 -262q0 -169 -65.5 -322.5t-176.5 -264.5t-265 -176.5t-323 -65.5h-500zM496 348h151q133 0 243.5 63.5t174 174t63.5 243.5q0 201 -140 341.5t-341 140.5h-151v-963z" />
    <glyph glyph-name="E" unicode="E" horiz-adv-x="1308" 
d="M147 0v1659h1065v-348h-716v-307h634v-349h-634v-307h716v-348h-1065z" />
    <glyph glyph-name="F" unicode="F" horiz-adv-x="1265" 
d="M147 0v1659h1065v-348h-716v-307h634v-349h-634v-655h-349z" />
    <glyph glyph-name="G" unicode="G" horiz-adv-x="1691" 
d="M952 -20q-176 0 -335 67t-273.5 180.5t-182 270.5t-67.5 331t67.5 331t182 271t273 181t333.5 67t333.5 -69t285.5 -201l-248 -248q-152 166 -371 166q-212 0 -358 -144.5t-146 -353.5t145.5 -353t356.5 -144q154 0 279 84v239h-320v349h649v-787q-274 -237 -604 -237z
" />
    <glyph glyph-name="H" unicode="H" horiz-adv-x="1484" 
d="M147 0v1659h349v-655h493v655h348v-1659h-348v655h-493v-655h-349z" />
    <glyph glyph-name="I" unicode="I" horiz-adv-x="643" 
d="M147 0v1659h349v-1659h-349z" />
    <glyph glyph-name="J" unicode="J" horiz-adv-x="1191" 
d="M571 -20q-212 0 -350.5 127t-138.5 321v256h348v-256q0 -46 39.5 -76t101.5 -30q63 0 102.5 30t39.5 76v1231h348v-1231q0 -194 -139 -321t-351 -127z" />
    <glyph glyph-name="K" unicode="K" horiz-adv-x="1386" 
d="M1386 0h-419l-471 735v-735h-349v1659h349v-617l460 617h428l-585 -762z" />
    <glyph glyph-name="L" unicode="L" horiz-adv-x="1112" 
d="M147 0v1659h349v-1311h594v-348h-943z" />
    <glyph glyph-name="M" unicode="M" horiz-adv-x="1875" 
d="M147 0v1700l791 -987l791 987v-1700h-347v723l-444 -571l-442 571v-723h-349z" />
    <glyph glyph-name="N" unicode="N" horiz-adv-x="1591" 
d="M1444 -41l-948 926v-885h-349v1700l949 -930v889h348v-1700z" />
    <glyph glyph-name="O" unicode="O" horiz-adv-x="1888" 
d="M944 -20q-139 0 -269 43t-234.5 121.5t-183 182.5t-121 234t-42.5 268q0 173 67.5 331t181.5 271.5t271 180.5t330 67t331 -67.5t271.5 -181.5t180.5 -271t67 -330t-67.5 -330.5t-181.5 -271t-271 -180.5t-330 -67zM944 328q209 0 355.5 146t146.5 355t-146.5 355.5
t-355.5 146.5t-355.5 -146.5t-146.5 -355.5t146.5 -355t355.5 -146z" />
    <glyph glyph-name="P" unicode="P" horiz-adv-x="1335" 
d="M147 0v1659h629q238 0 387.5 -149.5t149.5 -387.5q0 -239 -149 -388.5t-388 -149.5h-280v-584h-349zM496 932h280q86 0 137.5 51t51.5 139q0 86 -51.5 137.5t-137.5 51.5h-280v-379z" />
    <glyph glyph-name="Q" unicode="Q" horiz-adv-x="1888" 
d="M1794 829q0 -203 -89 -380.5t-244.5 -295.5t-348.5 -157v-211h-336v211q-193 39 -348.5 157.5t-244.5 296t-89 379.5q0 173 67.5 331t181.5 271.5t271 180.5t330 67t331 -67.5t271.5 -181.5t180.5 -271t67 -330zM1112 356q148 52 241 181.5t93 291.5q0 209 -146.5 355.5
t-355.5 146.5t-355.5 -146.5t-146.5 -355.5q0 -162 93 -291.5t241 -181.5v293h336v-293z" />
    <glyph glyph-name="R" unicode="R" horiz-adv-x="1433" 
d="M1393 0h-404l-323 584h-170v-584h-349v1659h629q229 0 383 -153.5t154 -383.5q0 -162 -78.5 -290t-212.5 -193zM496 1311v-379h280q86 0 137.5 51t51.5 139q0 86 -51.5 137.5t-137.5 51.5h-280z" />
    <glyph glyph-name="S" unicode="S" horiz-adv-x="1208" 
d="M612 -20q-203 0 -360.5 119t-200.5 307l322 145q10 -102 74 -163.5t157 -61.5q85 0 138 50t53 132q0 43 -22.5 78t-60 61t-86.5 49.5t-103 48t-108 52t-103 67t-86.5 87t-60 117t-22.5 153.5q0 201 132.5 329.5t338.5 128.5q162 0 288 -86t177 -231l-303 -135
q-19 55 -60 88t-95 33q-60 0 -96 -33t-36 -86q0 -37 22.5 -67.5t60 -54t87 -46.5t103.5 -48.5t108 -55t103.5 -72t87 -94t60 -125.5t22.5 -162q0 -228 -150 -376t-381 -148z" />
    <glyph glyph-name="T" unicode="T" horiz-adv-x="1234" 
d="M442 0v1311h-405v348h1157v-348h-403v-1311h-349z" />
    <glyph glyph-name="U" unicode="U" horiz-adv-x="1474" 
d="M131 1659h348v-1073q0 -109 74.5 -183.5t183.5 -74.5t183.5 74.5t74.5 183.5v1073h348v-1073q0 -165 -81 -304.5t-220.5 -220.5t-304.5 -81t-304.5 81t-220.5 220.5t-81 304.5v1073z" />
    <glyph glyph-name="V" unicode="V" horiz-adv-x="1564" 
d="M782 -41l-780 1700h408l372 -934l373 934h408z" />
    <glyph glyph-name="W" unicode="W" horiz-adv-x="2160" 
d="M2159 1659l-781 -1700l-297 668l-299 -668l-780 1700h385l406 -963l125 295l-300 668h345l118 -281l117 281h344l-299 -668l125 -295l406 963h385z" />
    <glyph glyph-name="X" unicode="X" horiz-adv-x="1486" 
d="M1499 1659l-518 -838l512 -821h-412l-338 541l-337 -541h-412l512 821l-518 838h411l344 -555l344 555h412z" />
    <glyph glyph-name="Y" unicode="Y" horiz-adv-x="1355" 
d="M504 0v782l-516 877h426l264 -518l266 518h424l-516 -877v-782h-348z" />
    <glyph glyph-name="Z" unicode="Z" horiz-adv-x="1533" 
d="M76 0l772 1311h-705v348h1313l-772 -1311h741v-348h-1349z" />
    <glyph glyph-name="bracketleft" unicode="[" horiz-adv-x="935" 
d="M143 -244l-6 2147h629v-326h-283l6 -1495h283v-326h-629z" />
    <glyph glyph-name="backslash" unicode="\" horiz-adv-x="1210" 
d="M842 -410l-885 2130h383l885 -2130h-383z" />
    <glyph glyph-name="bracketright" unicode="]" horiz-adv-x="940" 
d="M793 -244h-629v326h282l7 1495h-283v326h629z" />
    <glyph glyph-name="asciicircum" unicode="^" horiz-adv-x="1099" 
d="M55 602l385 1016h183l419 -1016h-272l-233 627l-218 -627h-264z" />
    <glyph glyph-name="underscore" unicode="_" horiz-adv-x="1581" 
d="M178 0v317h1225v-317h-1225z" />
    <glyph glyph-name="grave" unicode="`" horiz-adv-x="641" 
d="M338 1182l-266 239l231 164l266 -403h-231z" />
    <glyph glyph-name="a" unicode="a" horiz-adv-x="1406" 
d="M623 -20q-112 0 -214.5 46t-176 123.5t-117 184.5t-43.5 225q0 157 74 290.5t201 211.5t276 78q173 0 295 -90v65h348v-1114h-328l-4 80q-127 -100 -311 -100zM674 303q106 0 179 74.5t73 181.5q0 106 -73 180t-179 74q-107 0 -180.5 -73.5t-73.5 -180.5t74 -181.5
t180 -74.5z" />
    <glyph glyph-name="b" unicode="b" horiz-adv-x="1402" 
d="M774 -20q-175 0 -305 100l-4 -80h-328v1659h348v-610q126 90 289 90q152 0 280 -77.5t202.5 -211t74.5 -291.5q0 -159 -74 -292.5t-202 -210t-281 -76.5zM729 297q107 0 180.5 76t73.5 186t-73.5 185t-180.5 75t-180.5 -75.5t-73.5 -184.5q0 -110 74 -186t180 -76z" />
    <glyph glyph-name="c" unicode="c" horiz-adv-x="1021" 
d="M657 -20q-162 0 -296 75.5t-211.5 208.5t-77.5 293t77.5 293t211.5 209t296 76q143 0 263 -60v-377q-113 113 -252 113q-114 0 -186 -72t-72 -182q0 -109 71.5 -180.5t186.5 -71.5q135 0 252 111v-377q-118 -59 -263 -59z" />
    <glyph glyph-name="d" unicode="d" horiz-adv-x="1402" 
d="M629 -20q-153 0 -281 76.5t-202 210t-74 292.5q0 158 74.5 291.5t202.5 211t280 77.5q163 0 289 -90v610h348v-1659h-328l-4 80q-130 -100 -305 -100zM674 297q106 0 180 76t74 186q0 109 -73.5 184.5t-180.5 75.5t-180.5 -75t-73.5 -185t73.5 -186t180.5 -76z" />
    <glyph glyph-name="e" unicode="e" horiz-adv-x="1300" 
d="M657 1135q246 0 407.5 -160.5t164.5 -407.5v-2l-4 -96h-803q23 -90 87.5 -141.5t154.5 -51.5q137 0 213 105l311 -80q-64 -150 -203.5 -235.5t-318.5 -85.5q-168 0 -304 75t-213 207t-77 295q0 162 76.5 294.5t210.5 208t298 75.5zM659 842q-79 0 -136.5 -38.5
t-86.5 -109.5h432q-57 148 -209 148z" />
    <glyph glyph-name="f" unicode="f" horiz-adv-x="837" 
d="M203 0v817h-174v297h174v162q0 183 107.5 293t287.5 110q166 0 205 -57v-309q-24 33 -61.5 51t-75.5 18q-51 0 -84 -33.5t-33 -103.5v-131h258v-297h-258v-817h-346z" />
    <glyph glyph-name="g" unicode="g" horiz-adv-x="1413" 
d="M922 1114h350v-1012q0 -172 -77.5 -307.5t-216.5 -211t-314 -75.5q-160 0 -304.5 72t-232.5 195l256 186q102 -154 272 -154q114 0 186 74.5t81 210.5q-112 -102 -281 -102q-119 0 -224.5 43.5t-181 119t-119.5 180.5t-44 224q0 159 74.5 291.5t204 209.5t284.5 77
q165 0 287 -86v65zM674 293q109 0 185.5 77.5t76.5 186.5q0 110 -76.5 187t-185.5 77q-111 0 -186.5 -76t-75.5 -188q0 -110 76 -187t186 -77z" />
    <glyph glyph-name="h" unicode="h" horiz-adv-x="1241" 
d="M137 0v1659h346v-594q106 70 230 70q177 0 297 -123t120 -303v-709h-348v680q0 59 -40 97t-101 38q-67 0 -111.5 -39t-46.5 -98v-678h-346z" />
    <glyph glyph-name="i" unicode="i" horiz-adv-x="624" 
d="M311 1214q-81 0 -138.5 57.5t-57.5 137.5t57.5 137.5t138.5 57.5q82 0 139.5 -56.5t57.5 -138.5t-57.5 -138.5t-139.5 -56.5zM139 0v1114h344v-1114h-344z" />
    <glyph glyph-name="j" unicode="j" horiz-adv-x="624" 
d="M313 1214q-83 0 -140.5 57.5t-57.5 137.5t57.5 137.5t140.5 57.5q79 0 137 -58t58 -137t-58 -137t-137 -58zM-106 -471v319h153q43 0 67.5 30.5t24.5 84.5v1151h346v-1182q0 -183 -107.5 -293t-287.5 -110h-196z" />
    <glyph glyph-name="k" unicode="k" horiz-adv-x="1267" 
d="M1257 1114l-456 -496l442 -618h-444l-314 467v-467h-348v1659h348v-909l318 364h454z" />
    <glyph glyph-name="l" unicode="l" horiz-adv-x="624" 
d="M137 0v1659h346v-1659h-346z" />
    <glyph glyph-name="m" unicode="m" horiz-adv-x="1828" 
d="M137 0v1114h348v-49q95 70 209 70q170 0 295 -138q119 138 307 138q180 0 301 -126.5t121 -314.5v-694h-348v674q0 61 -37 101t-94 40q-60 0 -98.5 -43t-38.5 -110v-662h-348v674q0 63 -38 102t-98 39q-59 0 -96 -43t-37 -110v-662h-348z" />
    <glyph glyph-name="n" unicode="n" horiz-adv-x="1241" 
d="M137 0v1114h346v-70q97 91 236 91q172 0 291.5 -124t119.5 -302v-709h-348v676q0 63 -41 103t-104 40q-66 0 -109 -40.5t-45 -102.5v-676h-346z" />
    <glyph glyph-name="o" unicode="o" horiz-adv-x="1316" 
d="M659 -20q-163 0 -297.5 75.5t-212 208.5t-77.5 293t77.5 293t212 209t297.5 76q162 0 296.5 -76.5t212 -209.5t77.5 -292t-77.5 -292t-212 -209t-296.5 -76zM659 307q103 0 174.5 73t71.5 177q0 103 -71.5 175.5t-174.5 72.5q-106 0 -178.5 -72t-72.5 -176
q0 -105 73 -177.5t178 -72.5z" />
    <glyph glyph-name="p" unicode="p" horiz-adv-x="1392" 
d="M137 -471v1585h348v-65q124 86 287 86q149 0 275.5 -77.5t200 -210.5t73.5 -290q0 -117 -43.5 -224t-117 -184.5t-175 -123t-213.5 -45.5q-163 0 -287 86v-537h-348zM723 303q104 0 178 74t74 180t-74 180t-178 74q-106 0 -180 -74t-74 -180t74 -180t180 -74z" />
    <glyph glyph-name="q" unicode="q" horiz-adv-x="1396" 
d="M907 -471v537q-124 -86 -286 -86q-112 0 -213.5 45.5t-175 123t-117 184.5t-43.5 224q0 157 73.5 290t200 210.5t275.5 77.5q162 0 286 -86v65h348v-1585h-348zM670 303q106 0 180 74t74 180t-74 180t-180 74q-104 0 -178 -74t-74 -180t74 -180t178 -74z" />
    <glyph glyph-name="r" unicode="r" horiz-adv-x="821" 
d="M760 795q-124 28 -200.5 -43.5t-76.5 -253.5v-498h-346v1114h346v-149q27 85 93.5 127.5t144.5 42.5q27 0 39 -2v-338z" />
    <glyph glyph-name="s" unicode="s" horiz-adv-x="991" 
d="M514 -20q-130 0 -255 43.5t-218 109.5l197 242q67 -44 144.5 -74.5t131.5 -30.5q38 0 60 15.5t22 44.5q0 12 -3.5 21.5t-12.5 17.5t-18.5 14t-27 13t-32.5 12t-41.5 14t-46.5 16q-172 63 -246 141.5t-74 196.5q0 162 116 260.5t298 98.5q233 0 428 -158l-207 -209
q-56 42 -122 69t-113 27q-64 0 -64 -53q0 -29 28.5 -45t141.5 -55q56 -20 96 -37t88.5 -48.5t78.5 -67.5t50.5 -90.5t20.5 -121.5q0 -168 -114.5 -267t-305.5 -99z" />
    <glyph glyph-name="t" unicode="t" horiz-adv-x="837" 
d="M246 0v817h-203v297h203v371h348v-371h201v-297h-201v-817h-348z" />
    <glyph glyph-name="u" unicode="u" horiz-adv-x="1202" 
d="M600 -20q-224 0 -355.5 121t-131.5 327v686h348v-684q0 -66 36.5 -101.5t102.5 -35.5q68 0 104.5 35.5t36.5 101.5v684h349v-686q0 -205 -133 -326.5t-357 -121.5z" />
    <glyph glyph-name="v" unicode="v" horiz-adv-x="1191" 
d="M596 -41l-606 1155h377l229 -520l229 520h377z" />
    <glyph glyph-name="w" unicode="w" horiz-adv-x="1746" 
d="M1757 1114l-555 -1155l-328 705l-329 -705l-555 1155h379l194 -469l201 469h219l201 -469l194 469h379z" />
    <glyph glyph-name="x" unicode="x" horiz-adv-x="1366" 
d="M0 0l469 557l-469 557h428l252 -313l258 313h424l-469 -557l469 -557h-428l-252 311l-252 -311h-430z" />
    <glyph glyph-name="y" unicode="y" horiz-adv-x="1234" 
d="M858 1114h373l-635 -1585h-363l205 524l-434 1061h381l231 -633z" />
    <glyph glyph-name="z" unicode="z" horiz-adv-x="1187" 
d="M45 0l518 817h-454v297h1017l-520 -817h484v-297h-1045z" />
    <glyph glyph-name="braceleft" unicode="{" horiz-adv-x="864" 
d="M545 -248q-130 0 -218.5 104t-88.5 255v393v46.5t-2.5 38t-2 30.5t-7 24t-9 19.5t-15 16.5t-18.5 15t-27 14.5t-32 16t-41 18.5v242q72 32 101 55.5t41 63t12 121.5v323q0 152 88.5 255.5t218.5 103.5h211v-330h-54.5t-40.5 -2t-31 -3.5t-19 -8.5t-13.5 -13t-5.5 -20.5
t-4 -27v-36.5v-268q0 -109 -46 -190t-169 -144q123 -63 169 -144t46 -190v-337v-30t2 -24t2.5 -19.5t7 -13.5t9 -10.5t15 -6.5t19.5 -4.5t27.5 -1.5t33.5 -1h43h9v-330h-211z" />
    <glyph glyph-name="bar" unicode="|" horiz-adv-x="702" 
d="M227 -322v2001h246v-2001h-246z" />
    <glyph glyph-name="braceright" unicode="}" horiz-adv-x="804" 
d="M260 -248h-211v330h1h1h1h1h1h1h1h2q108 0 130 10q25 10 28 51l1 50v337q0 109 46 190t169 144q-123 63 -169 144t-46 190v268v36.5t-4 27t-5.5 20.5t-13.5 13t-19 8.5t-31 3.5t-40 2h-55v330h211q130 0 218.5 -103.5t88.5 -255.5v-323q0 -82 12 -121.5t41 -63t101 -55.5
v-242q-31 -14 -41 -18.5t-32 -16t-27 -14.5t-18.5 -15t-15 -16.5t-9 -19.5t-7 -24t-2 -30.5t-2.5 -38v-46.5v-393q0 -151 -88.5 -255t-218.5 -104z" />
    <glyph glyph-name="asciitilde" unicode="~" horiz-adv-x="1388" 
d="M371 557l-305 129q187 401 417 401q51 0 112 -28t107 -61t96.5 -61t82.5 -28q93 0 139 209l303 -129q-100 -217 -195 -310t-219 -93q-70 0 -137.5 28.5t-218.5 122.5q-57 36 -97.5 -3.5t-84.5 -176.5z" />
    <glyph glyph-name="DEL" horiz-adv-x="235" 
 />
    <glyph glyph-name="uni00A0" unicode="&#xa0;" horiz-adv-x="235" 
 />
    <glyph glyph-name="dieresis" unicode="&#xa8;" horiz-adv-x="837" 
d="M213 1264q-59 0 -100 41t-41 100q0 57 41.5 98t99.5 41q57 0 98 -41t41 -98q0 -58 -41 -99.5t-98 -41.5zM627 1264q-59 0 -100.5 41.5t-41.5 99.5q0 57 42 98t100 41q57 0 98 -41t41 -98q0 -58 -41 -99.5t-98 -41.5z" />
    <glyph glyph-name="copyright" unicode="&#xa9;" horiz-adv-x="1736" 
d="M868 41q-214 0 -391.5 102.5t-280 280t-102.5 391.5t102.5 391.5t280 280t391.5 102.5t391.5 -102.5t280 -280t102.5 -391.5t-102.5 -391.5t-280 -280t-391.5 -102.5zM868 178q173 0 320 85t232 231.5t85 320.5q0 173 -85 320t-231.5 232t-320.5 85q-173 0 -320 -85
t-232 -231.5t-85 -320.5q0 -173 85 -320t231.5 -232t320.5 -85zM911 332q-124 0 -233.5 65.5t-175.5 178t-66 241.5q0 123 59.5 232t165 176t230.5 67q56 0 124.5 -13t119.5 -40v-195q-92 89 -220 89q-138 0 -229.5 -94.5t-91.5 -223.5q0 -131 93 -224t228 -93q129 0 220 88
v-195q-112 -59 -224 -59z" />
    <glyph glyph-name="registered" unicode="&#xae;" horiz-adv-x="1306" 
d="M653 520q-121 0 -217 45q-101 42 -178 119q-72 72 -121 176q-43 104 -43 219t43 219q50 106 121 177q76 76 178 118q96 45 217 45t217 -45q104 -43 179 -118q70 -70 120 -177q43 -104 43 -219t-43 -219q-50 -106 -120 -176q-77 -77 -179 -119q-96 -45 -217 -45zM653 643
q94 0 170 33q78 34 138 94q68 68 94 139q35 71 35 170q0 96 -35 170q-28 74 -94 140q-60 60 -138 94q-76 33 -170 33q-93 0 -172 -33q-75 -34 -135 -94q-66 -66 -94 -140q-35 -74 -35 -170q0 -99 35 -170q26 -71 94 -139q60 -60 135 -94q79 -33 172 -33zM479 782v584h230
q72 0 120 -51q50 -50 50 -121q0 -55 -35 -102t-90 -62l129 -248h-115l-121 242h-69v-242h-99zM578 1122h131q23 0 51 21q20 27 20 51q0 31 -20 51q-23 23 -51 23h-131v-146z" />
    <glyph glyph-name="macron" unicode="&#xaf;" horiz-adv-x="794" 
d="M72 1219v213h651v-213h-651z" />
    <glyph glyph-name="acute" unicode="&#xb4;" horiz-adv-x="641" 
d="M72 1182l266 403l231 -164l-266 -239h-231z" />
    <glyph glyph-name="cedilla" unicode="&#xb8;" horiz-adv-x="583" 
d="M313 -88q90 -12 144.5 -73.5t54.5 -151.5q0 -98 -63.5 -163t-169.5 -65q-130 0 -207 86l90 121q46 -69 114 -69q37 0 63 24.5t26 65.5q0 44 -27.5 68t-63.5 24q-21 0 -42.5 -9.5t-32.5 -23.5l-95 94l127 176h175z" />
    <glyph glyph-name="Agrave" unicode="&#xc0;" horiz-adv-x="1564" 
d="M897 1800h-231l-226 178l191 164zM1169 0l-94 225h-586l-94 -225h-393l780 1700l781 -1700h-394zM618 532h328l-164 394z" />
    <glyph glyph-name="Aacute" unicode="&#xc1;" horiz-adv-x="1564" 
d="M1163 2019l-266 -219h-231l307 383zM1169 0l-94 225h-586l-94 -225h-393l780 1700l781 -1700h-394zM618 532h328l-164 394z" />
    <glyph glyph-name="Acircumflex" unicode="&#xc2;" horiz-adv-x="1564" 
d="M782 1968l-139 -168h-213l225 322h254l226 -322h-213zM1169 0l-94 225h-586l-94 -225h-393l780 1700l781 -1700h-394zM618 532h328l-164 394z" />
    <glyph glyph-name="Atilde" unicode="&#xc3;" horiz-adv-x="1564" 
d="M633 1911q-81 0 -107 -137l-192 79q33 134 105.5 202.5t172.5 68.5q54 0 101.5 -21t75.5 -45.5t65.5 -45.5t75.5 -21q105 0 114 145l187 -76q-68 -274 -285 -274q-57 0 -106.5 19.5t-78.5 43t-63.5 43t-64.5 19.5zM1169 0l-94 225h-586l-94 -225h-393l780 1700l781 -1700
h-394zM618 532h328l-164 394z" />
    <glyph glyph-name="Adieresis" unicode="&#xc4;" horiz-adv-x="1564" 
d="M575 1821q-59 0 -100 41.5t-41 99.5q0 57 41.5 98t99.5 41q57 0 98.5 -41t41.5 -98q0 -58 -41.5 -99.5t-98.5 -41.5zM989 1821q-59 0 -100 41.5t-41 99.5q0 57 41.5 98t99.5 41q57 0 98 -41t41 -98q0 -58 -41 -99.5t-98 -41.5zM1169 0l-94 225h-586l-94 -225h-393
l780 1700l781 -1700h-394zM618 532h328l-164 394z" />
    <glyph glyph-name="Aring" unicode="&#xc5;" horiz-adv-x="1564" 
d="M1169 0l-94 225h-586l-94 -225h-393l707 1540q-108 25 -179 112t-71 203q0 133 93 228.5t230 95.5q133 0 228.5 -93.5t95.5 -230.5q0 -115 -70.5 -202.5t-179.5 -112.5l707 -1540h-394zM629 1855q0 -64 44 -108.5t109 -44.5q64 0 109 44t45 109q0 64 -44.5 109t-109.5 45
q-64 0 -108.5 -44.5t-44.5 -109.5zM618 532h328l-164 394z" />
    <glyph glyph-name="AE" unicode="&#xc6;" horiz-adv-x="2123" 
d="M2028 1311h-707v-318h625v-327h-625v-318h707v-348h-1065v348h-431l-149 -348h-381l754 1659h1272v-348zM666 655h297v688z" />
    <glyph glyph-name="Ccedilla" unicode="&#xc7;" horiz-adv-x="1464" 
d="M950 1327q-212 0 -358 -144.5t-146 -353.5t145 -353t357 -144q119 0 218.5 49.5t195.5 157.5v-451q-162 -89 -332 -104l-63 -72q90 -12 144 -73.5t54 -151.5q0 -98 -63.5 -163t-169.5 -65q-130 0 -207 86l90 121q46 -69 115 -69q37 0 62.5 24.5t25.5 65.5q0 44 -27 68
t-63 24q-21 0 -43 -9.5t-33 -23.5l-94 94l104 144q-161 17 -303.5 90t-244.5 184.5t-161 260.5t-59 312q0 174 67.5 331t182.5 270t274.5 180t335.5 67q214 0 408 -108v-449q-99 110 -197.5 157.5t-214.5 47.5z" />
    <glyph glyph-name="Egrave" unicode="&#xc8;" horiz-adv-x="1308" 
d="M563 1800l-225 178l190 164l267 -342h-232zM147 0v1659h1065v-348h-716v-307h634v-349h-634v-307h716v-348h-1065z" />
    <glyph glyph-name="Eacute" unicode="&#xc9;" horiz-adv-x="1308" 
d="M563 1800l307 383l191 -164l-266 -219h-232zM147 0v1659h1065v-348h-716v-307h634v-349h-634v-307h716v-348h-1065z" />
    <glyph glyph-name="Ecircumflex" unicode="&#xca;" horiz-adv-x="1308" 
d="M328 1800l225 322h254l225 -322h-213l-139 168l-139 -168h-213zM147 0v1659h1065v-348h-716v-307h634v-349h-634v-307h716v-348h-1065z" />
    <glyph glyph-name="Edieresis" unicode="&#xcb;" horiz-adv-x="1308" 
d="M473 1821q-59 0 -100 41.5t-41 99.5q0 57 41.5 98t99.5 41q57 0 98 -41t41 -98q0 -58 -41 -99.5t-98 -41.5zM887 1821q-59 0 -100.5 41.5t-41.5 99.5q0 57 42 98t100 41q57 0 98 -41t41 -98q0 -58 -41 -99.5t-98 -41.5zM147 0v1659h1065v-348h-716v-307h634v-349h-634
v-307h716v-348h-1065z" />
    <glyph glyph-name="Igrave" unicode="&#xcc;" horiz-adv-x="643" 
d="M205 1759l-225 178l190 164l266 -342h-231zM147 0v1659h349v-1659h-349z" />
    <glyph glyph-name="Iacute" unicode="&#xcd;" horiz-adv-x="643" 
d="M205 1759l307 383l190 -164l-266 -219h-231zM147 0v1659h349v-1659h-349z" />
    <glyph glyph-name="Icircumflex" unicode="&#xce;" horiz-adv-x="643" 
d="M-31 1759l226 322h254l225 -322h-213l-139 168l-140 -168h-213zM147 0v1659h349v-1659h-349z" />
    <glyph glyph-name="Idieresis" unicode="&#xcf;" horiz-adv-x="643" 
d="M115 1780q-59 0 -100.5 41.5t-41.5 99.5q0 57 42 98t100 41q57 0 98 -41t41 -98q0 -58 -41 -99.5t-98 -41.5zM528 1780q-58 0 -99.5 41t-41.5 100q0 57 41.5 98t99.5 41q57 0 98.5 -41t41.5 -98q0 -58 -41.5 -99.5t-98.5 -41.5zM147 0v1659h349v-1659h-349z" />
    <glyph glyph-name="Eth" unicode="&#xd0;" horiz-adv-x="1570" 
d="M647 1659q135 0 262 -42t229 -118.5t178.5 -178.5t118.5 -229t42 -262q0 -169 -65.5 -322.5t-176.5 -264.5t-265 -176.5t-323 -65.5h-500v692h-116v277h116v690h500zM647 348q133 0 243.5 63.5t174 174t63.5 243.5q0 201 -140 341.5t-341 140.5h-151v-342h370v-277h-370
v-344h151z" />
    <glyph glyph-name="Ntilde" unicode="&#xd1;" horiz-adv-x="1591" 
d="M541 1733l-193 79q33 134 106 202.5t173 68.5q54 0 101.5 -21t75 -45.5t65 -45.5t75.5 -21q106 0 115 145l186 -76q-68 -274 -284 -274q-57 0 -107 19.5t-79 43t-63.5 43t-64.5 19.5q-80 0 -106 -137zM1444 -41l-948 926v-885h-349v1700l949 -930v889h348v-1700z" />
    <glyph glyph-name="Ograve" unicode="&#xd2;" horiz-adv-x="1888" 
d="M827 1800l-225 178l191 164l266 -342h-232zM944 -20q-139 0 -269 43t-234.5 121.5t-183 182.5t-121 234t-42.5 268q0 173 67.5 331t181.5 271.5t271 180.5t330 67t331 -67.5t271.5 -181.5t180.5 -271t67 -330t-67.5 -330.5t-181.5 -271t-271 -180.5t-330 -67zM944 328
q209 0 355.5 146t146.5 355t-146.5 355.5t-355.5 146.5t-355.5 -146.5t-146.5 -355.5t146.5 -355t355.5 -146z" />
    <glyph glyph-name="Oacute" unicode="&#xd3;" horiz-adv-x="1888" 
d="M827 1800l308 383l190 -164l-266 -219h-232zM944 -20q-139 0 -269 43t-234.5 121.5t-183 182.5t-121 234t-42.5 268q0 173 67.5 331t181.5 271.5t271 180.5t330 67t331 -67.5t271.5 -181.5t180.5 -271t67 -330t-67.5 -330.5t-181.5 -271t-271 -180.5t-330 -67zM944 328
q209 0 355.5 146t146.5 355t-146.5 355.5t-355.5 146.5t-355.5 -146.5t-146.5 -355.5t146.5 -355t355.5 -146z" />
    <glyph glyph-name="Ocircumflex" unicode="&#xd4;" horiz-adv-x="1888" 
d="M592 1800l225 322h254l225 -322h-213l-139 168l-139 -168h-213zM944 -20q-139 0 -269 43t-234.5 121.5t-183 182.5t-121 234t-42.5 268q0 173 67.5 331t181.5 271.5t271 180.5t330 67t331 -67.5t271.5 -181.5t180.5 -271t67 -330t-67.5 -330.5t-181.5 -271t-271 -180.5
t-330 -67zM944 328q209 0 355.5 146t146.5 355t-146.5 355.5t-355.5 146.5t-355.5 -146.5t-146.5 -355.5t146.5 -355t355.5 -146z" />
    <glyph glyph-name="Otilde" unicode="&#xd5;" horiz-adv-x="1888" 
d="M688 1774l-192 79q33 134 105.5 202.5t172.5 68.5q54 0 101.5 -21t75.5 -45.5t65.5 -45.5t75.5 -21q105 0 114 145l187 -76q-68 -274 -285 -274q-57 0 -106.5 19.5t-78.5 43t-63.5 43t-64.5 19.5q-81 0 -107 -137zM944 -20q-139 0 -269 43t-234.5 121.5t-183 182.5
t-121 234t-42.5 268q0 173 67.5 331t181.5 271.5t271 180.5t330 67t331 -67.5t271.5 -181.5t180.5 -271t67 -330t-67.5 -330.5t-181.5 -271t-271 -180.5t-330 -67zM944 328q209 0 355.5 146t146.5 355t-146.5 355.5t-355.5 146.5t-355.5 -146.5t-146.5 -355.5t146.5 -355
t355.5 -146z" />
    <glyph glyph-name="Odieresis" unicode="&#xd6;" horiz-adv-x="1888" 
d="M737 1821q-59 0 -100 41.5t-41 99.5q0 57 41.5 98t99.5 41q57 0 98.5 -41t41.5 -98q0 -58 -41.5 -99.5t-98.5 -41.5zM1151 1821q-59 0 -100 41.5t-41 99.5q0 57 41.5 98t99.5 41q57 0 98 -41t41 -98q0 -58 -41 -99.5t-98 -41.5zM944 -20q-139 0 -269 43t-234.5 121.5
t-183 182.5t-121 234t-42.5 268q0 173 67.5 331t181.5 271.5t271 180.5t330 67t331 -67.5t271.5 -181.5t180.5 -271t67 -330t-67.5 -330.5t-181.5 -271t-271 -180.5t-330 -67zM944 328q209 0 355.5 146t146.5 355t-146.5 355.5t-355.5 146.5t-355.5 -146.5t-146.5 -355.5
t146.5 -355t355.5 -146z" />
    <glyph glyph-name="multiply" unicode="&#xd7;" horiz-adv-x="1433" 
d="M408 299l-224 223l310 307l-289 291l225 226l289 -289l309 309l221 -223l-307 -309l289 -289l-227 -226l-289 289z" />
    <glyph glyph-name="Oslash" unicode="&#xd8;" horiz-adv-x="1888" 
d="M1620 1346q174 -228 174 -517q0 -173 -67.5 -330.5t-181.5 -271t-271 -180.5t-330 -67q-288 0 -516 174l-90 -91l-160 160l90 90q-174 228 -174 516q0 173 67.5 331t181.5 271.5t271 180.5t330 67q288 0 516 -174l90 90l160 -159zM442 829q0 -140 76 -266l692 692
q-126 76 -266 76q-209 0 -355.5 -146.5t-146.5 -355.5zM944 328q209 0 355.5 146t146.5 355q0 141 -76 267l-692 -693q124 -75 266 -75z" />
    <glyph glyph-name="Ugrave" unicode="&#xd9;" horiz-adv-x="1474" 
d="M621 1759l-226 178l191 164l266 -342h-231zM131 1659h348v-1073q0 -109 74.5 -183.5t183.5 -74.5t183.5 74.5t74.5 183.5v1073h348v-1073q0 -165 -81 -304.5t-220.5 -220.5t-304.5 -81t-304.5 81t-220.5 220.5t-81 304.5v1073z" />
    <glyph glyph-name="Uacute" unicode="&#xda;" horiz-adv-x="1474" 
d="M621 1759l307 383l190 -164l-266 -219h-231zM131 1659h348v-1073q0 -109 74.5 -183.5t183.5 -74.5t183.5 74.5t74.5 183.5v1073h348v-1073q0 -165 -81 -304.5t-220.5 -220.5t-304.5 -81t-304.5 81t-220.5 220.5t-81 304.5v1073z" />
    <glyph glyph-name="Ucircumflex" unicode="&#xdb;" horiz-adv-x="1474" 
d="M385 1759l225 322h254l226 -322h-213l-140 168l-139 -168h-213zM131 1659h348v-1073q0 -109 74.5 -183.5t183.5 -74.5t183.5 74.5t74.5 183.5v1073h348v-1073q0 -165 -81 -304.5t-220.5 -220.5t-304.5 -81t-304.5 81t-220.5 220.5t-81 304.5v1073z" />
    <glyph glyph-name="Udieresis" unicode="&#xdc;" horiz-adv-x="1474" 
d="M530 1780q-58 0 -99.5 41t-41.5 100q0 57 41.5 98t99.5 41q57 0 98.5 -41t41.5 -98q0 -58 -41.5 -99.5t-98.5 -41.5zM944 1780q-58 0 -99.5 41t-41.5 100q0 57 41.5 98t99.5 41q57 0 98 -41t41 -98q0 -58 -41 -99.5t-98 -41.5zM131 1659h348v-1073q0 -109 74.5 -183.5
t183.5 -74.5t183.5 74.5t74.5 183.5v1073h348v-1073q0 -165 -81 -304.5t-220.5 -220.5t-304.5 -81t-304.5 81t-220.5 220.5t-81 304.5v1073z" />
    <glyph glyph-name="Yacute" unicode="&#xdd;" horiz-adv-x="1355" 
d="M561 1759l307 383l191 -164l-266 -219h-232zM504 0v782l-516 877h426l264 -518l266 518h424l-516 -877v-782h-348z" />
    <glyph glyph-name="Thorn" unicode="&#xde;" horiz-adv-x="1400" 
d="M840 1372q136 0 251.5 -67.5t182.5 -183t67 -251.5q0 -102 -40 -194.5t-107 -159.5t-159.5 -107t-194.5 -40h-314v-369h-348v1659h348v-287h314zM840 717q64 0 108.5 44.5t44.5 108.5q0 65 -44.5 109.5t-108.5 44.5h-314v-307h314z" />
    <glyph glyph-name="germandbls" unicode="&#xdf;" horiz-adv-x="1263" 
d="M719 -12q-76 0 -109 10v346q28 -12 88 -12q94 0 133 49.5t39 167.5q0 149 -58 216t-181 69v319q39 1 59.5 33.5t20.5 77.5q0 51 -26 77.5t-71 26.5q-53 0 -83.5 -37.5t-30.5 -111.5v-1221h-353v1262q0 192 123.5 305.5t329.5 113.5q201 0 321.5 -109t120.5 -292
q0 -153 -88 -250q269 -136 269 -496q0 -258 -133 -401t-371 -143z" />
    <glyph glyph-name="agrave" unicode="&#xe0;" horiz-adv-x="1406" 
d="M604 1264l-266 239l231 164l267 -403h-232zM623 -20q-112 0 -214.5 46t-176 123.5t-117 184.5t-43.5 225q0 157 74 290.5t201 211.5t276 78q173 0 295 -90v65h348v-1114h-328l-4 80q-127 -100 -311 -100zM674 303q106 0 179 74.5t73 181.5q0 106 -73 180t-179 74
q-107 0 -180.5 -73.5t-73.5 -180.5t74 -181.5t180 -74.5z" />
    <glyph glyph-name="aacute" unicode="&#xe1;" horiz-adv-x="1406" 
d="M584 1272l266 403l231 -164l-266 -239h-231zM623 -20q-112 0 -214.5 46t-176 123.5t-117 184.5t-43.5 225q0 157 74 290.5t201 211.5t276 78q173 0 295 -90v65h348v-1114h-328l-4 80q-127 -100 -311 -100zM674 303q106 0 179 74.5t73 181.5q0 106 -73 180t-179 74
q-107 0 -180.5 -73.5t-73.5 -180.5t74 -181.5t180 -74.5z" />
    <glyph glyph-name="acircumflex" unicode="&#xe2;" horiz-adv-x="1406" 
d="M369 1255l225 404h254l225 -404h-213l-139 250l-139 -250h-213zM623 -20q-112 0 -214.5 46t-176 123.5t-117 184.5t-43.5 225q0 157 74 290.5t201 211.5t276 78q173 0 295 -90v65h348v-1114h-328l-4 80q-127 -100 -311 -100zM674 303q106 0 179 74.5t73 181.5
q0 106 -73 180t-179 74q-107 0 -180.5 -73.5t-73.5 -180.5t74 -181.5t180 -74.5z" />
    <glyph glyph-name="atilde" unicode="&#xe3;" horiz-adv-x="1406" 
d="M465 1229l-193 80q33 134 105.5 202t173.5 68q54 0 101.5 -21t75 -45.5t65 -45.5t75.5 -21q106 0 115 145l186 -75q-68 -275 -284 -275q-57 0 -107 19.5t-79 43t-63.5 43t-64.5 19.5q-80 0 -106 -137zM623 -20q-112 0 -214.5 46t-176 123.5t-117 184.5t-43.5 225
q0 157 74 290.5t201 211.5t276 78q173 0 295 -90v65h348v-1114h-328l-4 80q-127 -100 -311 -100zM674 303q106 0 179 74.5t73 181.5q0 106 -73 180t-179 74q-107 0 -180.5 -73.5t-73.5 -180.5t74 -181.5t180 -74.5z" />
    <glyph glyph-name="adieresis" unicode="&#xe4;" horiz-adv-x="1406" 
d="M514 1264q-58 0 -99.5 41t-41.5 100q0 57 41.5 98t99.5 41q57 0 98 -41t41 -98q0 -58 -41 -99.5t-98 -41.5zM928 1264q-59 0 -100.5 41.5t-41.5 99.5q0 57 42 98t100 41q57 0 98 -41t41 -98q0 -58 -41 -99.5t-98 -41.5zM623 -20q-112 0 -214.5 46t-176 123.5t-117 184.5
t-43.5 225q0 157 74 290.5t201 211.5t276 78q173 0 295 -90v65h348v-1114h-328l-4 80q-127 -100 -311 -100zM674 303q106 0 179 74.5t73 181.5q0 106 -73 180t-179 74q-107 0 -180.5 -73.5t-73.5 -180.5t74 -181.5t180 -74.5z" />
    <glyph glyph-name="aring" unicode="&#xe5;" horiz-adv-x="1406" 
d="M721 1217q-133 0 -228.5 93t-95.5 230q0 133 93.5 228.5t230.5 95.5q133 0 228 -93.5t95 -230.5q0 -135 -94 -229t-229 -94zM721 1386q64 0 108.5 44.5t44.5 109.5q0 64 -44 109t-109 45q-64 0 -109 -44.5t-45 -109.5q0 -64 44.5 -109t109.5 -45zM623 -20
q-112 0 -214.5 46t-176 123.5t-117 184.5t-43.5 225q0 157 74 290.5t201 211.5t276 78q173 0 295 -90v65h348v-1114h-328l-4 80q-127 -100 -311 -100zM674 303q106 0 179 74.5t73 181.5q0 106 -73 180t-179 74q-107 0 -180.5 -73.5t-73.5 -180.5t74 -181.5t180 -74.5z" />
    <glyph glyph-name="ae" unicode="&#xe6;" horiz-adv-x="1959" 
d="M1317 1135q121 0 226.5 -42.5t180.5 -117.5t119 -180.5t45 -227.5v-2l-4 -96h-803q23 -90 87.5 -141.5t154.5 -51.5q137 0 213 105l311 -80q-64 -150 -203.5 -235.5t-318.5 -85.5q-134 0 -249.5 49.5t-198.5 138.5q-135 -188 -390 -188q-192 0 -303.5 107t-111.5 263
q0 141 114 320h539v12q0 102 -45 141t-143 39h-351v252h377q255 0 381 -106q159 127 373 127zM1319 842q-79 0 -136.5 -38.5t-86.5 -109.5h432q-57 148 -209 148zM551 233q103 0 174 111v117h-258q-33 -58 -33 -105q0 -66 33.5 -94.5t83.5 -28.5z" />
    <glyph glyph-name="ccedilla" unicode="&#xe7;" horiz-adv-x="1021" 
d="M668 811q-114 0 -186 -72t-72 -182q0 -109 71.5 -180.5t186.5 -71.5q135 0 252 111v-377q-79 -40 -177 -53l-65 -74q90 -12 144.5 -73.5t54.5 -151.5q0 -98 -64 -163t-170 -65q-130 0 -207 86l90 121q46 -69 115 -69q37 0 62.5 24.5t25.5 65.5q0 44 -27 68t-63 24
q-21 0 -43 -9.5t-33 -23.5l-94 94l104 146q-217 29 -359 189.5t-142 381.5q0 160 77.5 293t211.5 209t296 76q143 0 263 -60v-377q-113 113 -252 113z" />
    <glyph glyph-name="egrave" unicode="&#xe8;" horiz-adv-x="1300" 
d="M766 1264h-231l-267 239l232 164zM657 1135q246 0 407.5 -160.5t164.5 -407.5v-2l-4 -96h-803q23 -90 87.5 -141.5t154.5 -51.5q137 0 213 105l311 -80q-64 -150 -203.5 -235.5t-318.5 -85.5q-168 0 -304 75t-213 207t-77 295q0 162 76.5 294.5t210.5 208t298 75.5z
M659 842q-79 0 -136.5 -38.5t-86.5 -109.5h432q-57 148 -209 148z" />
    <glyph glyph-name="eacute" unicode="&#xe9;" horiz-adv-x="1300" 
d="M1012 1511l-267 -239h-231l266 403zM657 1135q246 0 407.5 -160.5t164.5 -407.5v-2l-4 -96h-803q23 -90 87.5 -141.5t154.5 -51.5q137 0 213 105l311 -80q-64 -150 -203.5 -235.5t-318.5 -85.5q-168 0 -304 75t-213 207t-77 295q0 162 76.5 294.5t210.5 208t298 75.5z
M659 842q-79 0 -136.5 -38.5t-86.5 -109.5h432q-57 148 -209 148z" />
    <glyph glyph-name="ecircumflex" unicode="&#xea;" horiz-adv-x="1300" 
d="M651 1505l-139 -250h-213l225 404h254l226 -404h-213zM657 1135q246 0 407.5 -160.5t164.5 -407.5v-2l-4 -96h-803q23 -90 87.5 -141.5t154.5 -51.5q137 0 213 105l311 -80q-64 -150 -203.5 -235.5t-318.5 -85.5q-168 0 -304 75t-213 207t-77 295q0 162 76.5 294.5
t210.5 208t298 75.5zM659 842q-79 0 -136.5 -38.5t-86.5 -109.5h432q-57 148 -209 148z" />
    <glyph glyph-name="edieresis" unicode="&#xeb;" horiz-adv-x="1300" 
d="M444 1264q-58 0 -99.5 41t-41.5 100q0 57 41.5 98t99.5 41q57 0 98.5 -41t41.5 -98q0 -58 -41.5 -99.5t-98.5 -41.5zM858 1264q-58 0 -99.5 41t-41.5 100q0 57 41.5 98t99.5 41q57 0 98 -41t41 -98q0 -58 -41 -99.5t-98 -41.5zM657 1135q246 0 407.5 -160.5t164.5 -407.5
v-2l-4 -96h-803q23 -90 87.5 -141.5t154.5 -51.5q137 0 213 105l311 -80q-64 -150 -203.5 -235.5t-318.5 -85.5q-168 0 -304 75t-213 207t-77 295q0 162 76.5 294.5t210.5 208t298 75.5zM659 842q-79 0 -136.5 -38.5t-86.5 -109.5h432q-57 148 -209 148z" />
    <glyph glyph-name="igrave" unicode="&#xec;" horiz-adv-x="622" 
d="M195 1264l-267 239l232 164l266 -403h-231zM137 0v1114h344v-1114h-344z" />
    <glyph glyph-name="iacute" unicode="&#xed;" horiz-adv-x="622" 
d="M174 1272l266 403l232 -164l-266 -239h-232zM137 0v1114h344v-1114h-344z" />
    <glyph glyph-name="icircumflex" unicode="&#xee;" horiz-adv-x="622" 
d="M-41 1255l225 404h254l226 -404h-213l-140 250l-139 -250h-213zM137 0v1114h344v-1114h-344z" />
    <glyph glyph-name="idieresis" unicode="&#xef;" horiz-adv-x="622" 
d="M104 1264q-58 0 -99.5 41t-41.5 100q0 57 41.5 98t99.5 41q57 0 98.5 -41t41.5 -98q0 -58 -41.5 -99.5t-98.5 -41.5zM518 1264q-58 0 -99.5 41t-41.5 100q0 57 41.5 98t99.5 41q57 0 98 -41t41 -98q0 -58 -41 -99.5t-98 -41.5zM137 0v1114h344v-1114h-344z" />
    <glyph glyph-name="eth" unicode="&#xf0;" horiz-adv-x="1359" 
d="M1057 928q131 -209 131 -381q0 -156 -73 -287t-200 -207t-278 -76q-113 0 -216 45t-177 121t-118 180.5t-44 219.5q0 216 128.5 373.5t328.5 191.5l-62 98l-131 -49l-72 191l95 34l-174 279h401l100 -160l105 39l71 -190l-65 -25zM635 326q92 0 156.5 64.5t64.5 156.5
t-64.5 156.5t-156.5 64.5t-156.5 -64.5t-64.5 -156.5t64.5 -156.5t156.5 -64.5z" />
    <glyph glyph-name="ntilde" unicode="&#xf1;" horiz-adv-x="1241" 
d="M360 1188l-192 80q33 134 105.5 202t172.5 68q54 0 101.5 -21t75.5 -45.5t65.5 -45.5t75.5 -21q106 0 115 145l186 -75q-68 -275 -285 -275q-57 0 -106.5 19.5t-78.5 43t-63.5 43t-64.5 19.5q-81 0 -107 -137zM137 0v1114h346v-70q97 91 236 91q172 0 291.5 -124
t119.5 -302v-709h-348v676q0 63 -41 103t-104 40q-66 0 -109 -40.5t-45 -102.5v-676h-346z" />
    <glyph glyph-name="ograve" unicode="&#xf2;" horiz-adv-x="1316" 
d="M543 1264l-267 239l232 164l266 -403h-231zM659 -20q-163 0 -297.5 75.5t-212 208.5t-77.5 293t77.5 293t212 209t297.5 76q162 0 296.5 -76.5t212 -209.5t77.5 -292t-77.5 -292t-212 -209t-296.5 -76zM659 307q103 0 174.5 73t71.5 177q0 103 -71.5 175.5t-174.5 72.5
q-106 0 -178.5 -72t-72.5 -176q0 -105 73 -177.5t178 -72.5z" />
    <glyph glyph-name="oacute" unicode="&#xf3;" horiz-adv-x="1316" 
d="M522 1272l266 403l232 -164l-266 -239h-232zM659 -20q-163 0 -297.5 75.5t-212 208.5t-77.5 293t77.5 293t212 209t297.5 76q162 0 296.5 -76.5t212 -209.5t77.5 -292t-77.5 -292t-212 -209t-296.5 -76zM659 307q103 0 174.5 73t71.5 177q0 103 -71.5 175.5t-174.5 72.5
q-106 0 -178.5 -72t-72.5 -176q0 -105 73 -177.5t178 -72.5z" />
    <glyph glyph-name="ocircumflex" unicode="&#xf4;" horiz-adv-x="1316" 
d="M307 1255l225 404h254l226 -404h-213l-140 250l-139 -250h-213zM659 -20q-163 0 -297.5 75.5t-212 208.5t-77.5 293t77.5 293t212 209t297.5 76q162 0 296.5 -76.5t212 -209.5t77.5 -292t-77.5 -292t-212 -209t-296.5 -76zM659 307q103 0 174.5 73t71.5 177
q0 103 -71.5 175.5t-174.5 72.5q-106 0 -178.5 -72t-72.5 -176q0 -105 73 -177.5t178 -72.5z" />
    <glyph glyph-name="otilde" unicode="&#xf5;" horiz-adv-x="1316" 
d="M403 1229l-192 80q33 134 105.5 202t172.5 68q54 0 101.5 -21t75.5 -45.5t65.5 -45.5t75.5 -21q106 0 115 145l186 -75q-68 -275 -285 -275q-57 0 -106.5 19.5t-78.5 43t-63.5 43t-64.5 19.5q-81 0 -107 -137zM659 -20q-163 0 -297.5 75.5t-212 208.5t-77.5 293t77.5 293
t212 209t297.5 76q162 0 296.5 -76.5t212 -209.5t77.5 -292t-77.5 -292t-212 -209t-296.5 -76zM659 307q103 0 174.5 73t71.5 177q0 103 -71.5 175.5t-174.5 72.5q-106 0 -178.5 -72t-72.5 -176q0 -105 73 -177.5t178 -72.5z" />
    <glyph glyph-name="odieresis" unicode="&#xf6;" horiz-adv-x="1316" 
d="M453 1264q-59 0 -100.5 41.5t-41.5 99.5q0 57 42 98t100 41q57 0 98 -41t41 -98q0 -58 -41 -99.5t-98 -41.5zM866 1264q-58 0 -99.5 41t-41.5 100q0 57 41.5 98t99.5 41q57 0 98.5 -41t41.5 -98q0 -58 -41.5 -99.5t-98.5 -41.5zM659 -20q-163 0 -297.5 75.5t-212 208.5
t-77.5 293t77.5 293t212 209t297.5 76q162 0 296.5 -76.5t212 -209.5t77.5 -292t-77.5 -292t-212 -209t-296.5 -76zM659 307q103 0 174.5 73t71.5 177q0 103 -71.5 175.5t-174.5 72.5q-106 0 -178.5 -72t-72.5 -176q0 -105 73 -177.5t178 -72.5z" />
    <glyph glyph-name="divide" unicode="&#xf7;" horiz-adv-x="1286" 
d="M643 1038q-100 0 -168.5 69t-68.5 169q0 99 69.5 169.5t167.5 70.5q99 0 169.5 -70.5t70.5 -169.5q0 -101 -68.5 -169.5t-171.5 -68.5zM184 672v315h918v-315h-918zM643 137q-100 0 -168.5 69t-68.5 169q0 98 69.5 168.5t167.5 70.5q99 0 169.5 -70t70.5 -169
q0 -101 -68.5 -169.5t-171.5 -68.5z" />
    <glyph glyph-name="oslash" unicode="&#xf8;" horiz-adv-x="1316" 
d="M1128 907q117 -152 117 -350q0 -159 -77.5 -292t-212 -209t-296.5 -76q-194 0 -350 108l-94 -94l-117 117l92 92q-118 156 -118 354q0 160 77.5 293t212 209t297.5 76q196 0 351 -111l96 96l117 -119zM408 557q0 -61 24 -111l334 334q-48 25 -107 25q-106 0 -178.5 -72
t-72.5 -176zM659 307q103 0 174.5 73t71.5 177q0 56 -22 105l-332 -332q54 -23 108 -23z" />
    <glyph glyph-name="ugrave" unicode="&#xf9;" horiz-adv-x="1202" 
d="M485 1264l-266 239l232 164l266 -403h-232zM600 -20q-224 0 -355.5 121t-131.5 327v686h348v-684q0 -66 36.5 -101.5t102.5 -35.5q68 0 104.5 35.5t36.5 101.5v684h349v-686q0 -205 -133 -326.5t-357 -121.5z" />
    <glyph glyph-name="uacute" unicode="&#xfa;" horiz-adv-x="1202" 
d="M465 1272l266 403l232 -164l-267 -239h-231zM600 -20q-224 0 -355.5 121t-131.5 327v686h348v-684q0 -66 36.5 -101.5t102.5 -35.5q68 0 104.5 35.5t36.5 101.5v684h349v-686q0 -205 -133 -326.5t-357 -121.5z" />
    <glyph glyph-name="ucircumflex" unicode="&#xfb;" horiz-adv-x="1202" 
d="M250 1255l225 404h254l225 -404h-213l-139 250l-139 -250h-213zM600 -20q-224 0 -355.5 121t-131.5 327v686h348v-684q0 -66 36.5 -101.5t102.5 -35.5q68 0 104.5 35.5t36.5 101.5v684h349v-686q0 -205 -133 -326.5t-357 -121.5z" />
    <glyph glyph-name="udieresis" unicode="&#xfc;" horiz-adv-x="1202" 
d="M395 1264q-59 0 -100 41t-41 100q0 57 41.5 98t99.5 41q57 0 98.5 -41t41.5 -98q0 -58 -41.5 -99.5t-98.5 -41.5zM809 1264q-59 0 -100 41t-41 100q0 57 41.5 98t99.5 41q57 0 98 -41t41 -98q0 -58 -41 -99.5t-98 -41.5zM600 -20q-224 0 -355.5 121t-131.5 327v686h348
v-684q0 -66 36.5 -101.5t102.5 -35.5q68 0 104.5 35.5t36.5 101.5v684h349v-686q0 -205 -133 -326.5t-357 -121.5z" />
    <glyph glyph-name="yacute" unicode="&#xfd;" horiz-adv-x="1234" 
d="M979 1511l-266 -239h-232l267 403zM858 1114h373l-635 -1585h-363l205 524l-434 1061h381l231 -633z" />
    <glyph glyph-name="thorn" unicode="&#xfe;" horiz-adv-x="1419" 
d="M164 -471v2130h348v-610q124 86 287 86q149 0 275.5 -77.5t200 -210.5t73.5 -290q0 -117 -43.5 -224t-117 -184.5t-175 -123t-213.5 -45.5q-163 0 -287 86v-537h-348zM750 303q104 0 177.5 74t73.5 180t-73.5 180t-177.5 74q-106 0 -180 -74t-74 -180t74 -180t180 -74z
" />
    <glyph glyph-name="ydieresis" unicode="&#xff;" horiz-adv-x="1234" 
d="M412 1264q-59 0 -100.5 41.5t-41.5 99.5q0 57 42 98t100 41q57 0 98 -41t41 -98q0 -58 -41 -99.5t-98 -41.5zM825 1264q-59 0 -100 41t-41 100q0 57 41.5 98t99.5 41q57 0 98.5 -41t41.5 -98q0 -58 -41.5 -99.5t-98.5 -41.5zM858 1114h373l-635 -1585h-363l205 524
l-434 1061h381l231 -633z" />
    <glyph glyph-name="Amacron" unicode="&#x100;" horiz-adv-x="1564" 
d="M1108 2013v-213h-651v213h651zM1169 0l-94 225h-586l-94 -225h-393l780 1700l781 -1700h-394zM618 532h328l-164 394z" />
    <glyph glyph-name="amacron" unicode="&#x101;" horiz-adv-x="1406" 
d="M395 1309v213h652v-213h-652zM623 -20q-112 0 -214.5 46t-176 123.5t-117 184.5t-43.5 225q0 157 74 290.5t201 211.5t276 78q173 0 295 -90v65h348v-1114h-328l-4 80q-127 -100 -311 -100zM674 303q106 0 179 74.5t73 181.5q0 106 -73 180t-179 74q-107 0 -180.5 -73.5
t-73.5 -180.5t74 -181.5t180 -74.5z" />
    <glyph glyph-name="Abreve" unicode="&#x102;" horiz-adv-x="1564" 
d="M797 1718q-162 0 -269.5 103.5t-107.5 259.5v30h203v-30q0 -66 46 -113t111 -47q66 0 113 47t47 113v30h203v-30q0 -149 -102.5 -256t-243.5 -107zM1169 0l-94 225h-586l-94 -225h-393l780 1700l781 -1700h-394zM618 532h328l-164 394z" />
    <glyph glyph-name="abreve" unicode="&#x103;" horiz-adv-x="1406" 
d="M735 1253q-162 0 -269.5 103.5t-107.5 259.5v51h203v-51q0 -66 46.5 -113t111.5 -47q66 0 113 47t47 113v51h202v-51q0 -149 -102.5 -256t-243.5 -107zM623 -20q-112 0 -214.5 46t-176 123.5t-117 184.5t-43.5 225q0 157 74 290.5t201 211.5t276 78q173 0 295 -90v65h348
v-1114h-328l-4 80q-127 -100 -311 -100zM674 303q106 0 179 74.5t73 181.5q0 106 -73 180t-179 74q-107 0 -180.5 -73.5t-73.5 -180.5t74 -181.5t180 -74.5z" />
    <glyph glyph-name="Aogonek" unicode="&#x104;" horiz-adv-x="1564" 
d="M1528 -217l129 -145q-49 -58 -112.5 -87.5t-129.5 -29.5q-103 0 -175.5 64.5t-72.5 174.5q0 71 35 134t103 106h-136l-94 225h-586l-94 -225h-393l780 1700l781 -1700q-114 -13 -171 -67t-57 -121q0 -43 22.5 -65.5t57.5 -22.5q62 0 113 59zM618 532h328l-164 394z" />
    <glyph glyph-name="aogonek" unicode="&#x105;" horiz-adv-x="1406" 
d="M1231 -217l129 -145q-49 -58 -112.5 -87.5t-129.5 -29.5q-103 0 -175.5 64.5t-72.5 174.5q0 71 35 134t103 106h-70l-4 80q-127 -100 -311 -100q-112 0 -214.5 46t-176 123.5t-117 184.5t-43.5 225q0 157 74 290.5t201 211.5t276 78q173 0 295 -90v65h348v-1114
q-114 -13 -171 -67t-57 -121q0 -43 22.5 -65.5t57.5 -22.5q62 0 113 59zM674 303q106 0 179 74.5t73 181.5q0 106 -73 180t-179 74q-107 0 -180.5 -73.5t-73.5 -180.5t74 -181.5t180 -74.5z" />
    <glyph glyph-name="Cacute" unicode="&#x106;" horiz-adv-x="1464" 
d="M793 1800l307 383l190 -164l-266 -219h-231zM954 -20q-177 0 -336 67t-274 180.5t-182.5 271.5t-67.5 332t67.5 331t182.5 270t274.5 180t335.5 67q214 0 408 -108v-449q-99 110 -197.5 157.5t-214.5 47.5q-212 0 -358 -144.5t-146 -353.5t145 -353t357 -144
q119 0 218.5 49.5t195.5 157.5v-451q-194 -108 -408 -108z" />
    <glyph glyph-name="cacute" unicode="&#x107;" horiz-adv-x="1021" 
d="M522 1272l266 403l232 -164l-266 -239h-232zM657 -20q-162 0 -296 75.5t-211.5 208.5t-77.5 293t77.5 293t211.5 209t296 76q143 0 263 -60v-377q-113 113 -252 113q-114 0 -186 -72t-72 -182q0 -109 71.5 -180.5t186.5 -71.5q135 0 252 111v-377q-118 -59 -263 -59z" />
    <glyph glyph-name="Cdotaccent" unicode="&#x10a;" horiz-adv-x="1464" 
d="M909 1780q-59 0 -100 41t-41 100q0 57 41.5 98t99.5 41q57 0 98.5 -41t41.5 -98q0 -58 -41.5 -99.5t-98.5 -41.5zM954 -20q-177 0 -336 67t-274 180.5t-182.5 271.5t-67.5 332t67.5 331t182.5 270t274.5 180t335.5 67q214 0 408 -108v-449q-99 110 -197.5 157.5
t-214.5 47.5q-212 0 -358 -144.5t-146 -353.5t145 -353t357 -144q119 0 218.5 49.5t195.5 157.5v-451q-194 -108 -408 -108z" />
    <glyph glyph-name="cdotaccent" unicode="&#x10b;" horiz-adv-x="1021" 
d="M659 1264q-59 0 -100 41t-41 100q0 57 41.5 98t99.5 41q57 0 98.5 -41t41.5 -98q0 -58 -41.5 -99.5t-98.5 -41.5zM657 -20q-162 0 -296 75.5t-211.5 208.5t-77.5 293t77.5 293t211.5 209t296 76q143 0 263 -60v-377q-113 113 -252 113q-114 0 -186 -72t-72 -182
q0 -109 71.5 -180.5t186.5 -71.5q135 0 252 111v-377q-118 -59 -263 -59z" />
    <glyph glyph-name="Ccaron" unicode="&#x10c;" horiz-adv-x="1464" 
d="M782 1800l-225 342h213l139 -188l140 188h213l-226 -342h-254zM954 -20q-177 0 -336 67t-274 180.5t-182.5 271.5t-67.5 332t67.5 331t182.5 270t274.5 180t335.5 67q214 0 408 -108v-449q-99 110 -197.5 157.5t-214.5 47.5q-212 0 -358 -144.5t-146 -353.5t145 -353
t357 -144q119 0 218.5 49.5t195.5 157.5v-451q-194 -108 -408 -108z" />
    <glyph glyph-name="ccaron" unicode="&#x10d;" horiz-adv-x="1021" 
d="M532 1255l-225 404h213l139 -250l140 250h213l-226 -404h-254zM657 -20q-162 0 -296 75.5t-211.5 208.5t-77.5 293t77.5 293t211.5 209t296 76q143 0 263 -60v-377q-113 113 -252 113q-114 0 -186 -72t-72 -182q0 -109 71.5 -180.5t186.5 -71.5q135 0 252 111v-377
q-118 -59 -263 -59z" />
    <glyph glyph-name="Dcaron" unicode="&#x10e;" horiz-adv-x="1570" 
d="M520 1800l-225 342h213l139 -188l139 188h213l-225 -342h-254zM147 0v1659h500q135 0 262 -42t229 -118.5t178.5 -178.5t118.5 -229t42 -262q0 -169 -65.5 -322.5t-176.5 -264.5t-265 -176.5t-323 -65.5h-500zM496 348h151q133 0 243.5 63.5t174 174t63.5 243.5
q0 201 -140 341.5t-341 140.5h-151v-963z" />
    <glyph glyph-name="dcaron" unicode="&#x10f;" horiz-adv-x="1601" 
d="M629 -20q-153 0 -281 76.5t-202 210t-74 292.5q0 158 74.5 291.5t202.5 211t280 77.5q163 0 289 -90v610h348v-1659h-328l-4 80q-130 -100 -305 -100zM1595 1051h-215l62 608h358zM674 297q106 0 180 76t74 186q0 109 -73.5 184.5t-180.5 75.5t-180.5 -75t-73.5 -185
t73.5 -186t180.5 -76z" />
    <glyph glyph-name="Dcroat" unicode="&#x110;" horiz-adv-x="1570" 
d="M647 1659q135 0 262 -42t229 -118.5t178.5 -178.5t118.5 -229t42 -262q0 -169 -65.5 -322.5t-176.5 -264.5t-265 -176.5t-323 -65.5h-500v692h-116v277h116v690h500zM647 348q133 0 243.5 63.5t174 174t63.5 243.5q0 201 -140 341.5t-341 140.5h-151v-342h370v-277h-370
v-344h151z" />
    <glyph glyph-name="dcroat" unicode="&#x111;" horiz-adv-x="1402" 
d="M1399 1503v-192h-133v-1311h-328l-4 80q-130 -100 -305 -100q-153 0 -281 76.5t-202 210t-74 292.5q0 158 74.5 291.5t202.5 211t280 77.5q163 0 289 -90v262h-355v192h355v156h348v-156h133zM674 297q106 0 180 76t74 186q0 109 -73.5 184.5t-180.5 75.5t-180.5 -75
t-73.5 -185t73.5 -186t180.5 -76z" />
    <glyph glyph-name="Emacron" unicode="&#x112;" horiz-adv-x="1308" 
d="M354 1800v213h652v-213h-652zM147 0v1659h1065v-348h-716v-307h634v-349h-634v-307h716v-348h-1065z" />
    <glyph glyph-name="emacron" unicode="&#x113;" horiz-adv-x="1300" 
d="M977 1522v-213h-651v213h651zM657 1135q246 0 407.5 -160.5t164.5 -407.5v-2l-4 -96h-803q23 -90 87.5 -141.5t154.5 -51.5q137 0 213 105l311 -80q-64 -150 -203.5 -235.5t-318.5 -85.5q-168 0 -304 75t-213 207t-77 295q0 162 76.5 294.5t210.5 208t298 75.5zM659 842
q-79 0 -136.5 -38.5t-86.5 -109.5h432q-57 148 -209 148z" />
    <glyph glyph-name="Edotaccent" unicode="&#x116;" horiz-adv-x="1308" 
d="M680 1780q-58 0 -99.5 41t-41.5 100q0 57 41.5 98t99.5 41q57 0 98 -41t41 -98q0 -58 -41 -99.5t-98 -41.5zM147 0v1659h1065v-348h-716v-307h634v-349h-634v-307h716v-348h-1065z" />
    <glyph glyph-name="edotaccent" unicode="&#x117;" horiz-adv-x="1300" 
d="M651 1264q-59 0 -100 41t-41 100q0 57 41.5 98t99.5 41q57 0 98.5 -41t41.5 -98q0 -58 -41.5 -99.5t-98.5 -41.5zM657 1135q246 0 407.5 -160.5t164.5 -407.5v-2l-4 -96h-803q23 -90 87.5 -141.5t154.5 -51.5q137 0 213 105l311 -80q-64 -150 -203.5 -235.5t-318.5 -85.5
q-168 0 -304 75t-213 207t-77 295q0 162 76.5 294.5t210.5 208t298 75.5zM659 842q-79 0 -136.5 -38.5t-86.5 -109.5h432q-57 148 -209 148z" />
    <glyph glyph-name="Eogonek" unicode="&#x118;" horiz-adv-x="1308" 
d="M1178 -217l129 -145q-49 -58 -112.5 -87.5t-129.5 -29.5q-103 0 -175.5 64.5t-72.5 174.5q0 71 35 134t102 106h-807v1659h1065v-348h-716v-307h634v-349h-634v-307h716v-348q-114 -13 -170.5 -67t-56.5 -121q0 -43 22.5 -65.5t57.5 -22.5q62 0 113 59z" />
    <glyph glyph-name="eogonek" unicode="&#x119;" horiz-adv-x="1300" 
d="M657 1135q246 0 407.5 -160.5t164.5 -407.5v-2l-4 -96h-803q23 -90 87.5 -141.5t154.5 -51.5q137 0 213 105l311 -80q-57 -133 -172.5 -215.5t-267.5 -101.5q-50 -26 -74.5 -66.5t-24.5 -83.5t22.5 -65.5t57.5 -22.5q62 0 113 59l129 -145q-49 -58 -112.5 -87.5
t-129.5 -29.5q-103 0 -175.5 65t-72.5 175q0 122 90 203q-219 31 -359 189.5t-140 381.5q0 162 76.5 294.5t210.5 208t298 75.5zM659 842q-79 0 -136.5 -38.5t-86.5 -109.5h432q-57 148 -209 148z" />
    <glyph glyph-name="Ecaron" unicode="&#x11a;" horiz-adv-x="1308" 
d="M553 1800l-225 342h213l139 -188l139 188h213l-225 -342h-254zM147 0v1659h1065v-348h-716v-307h634v-349h-634v-307h716v-348h-1065z" />
    <glyph glyph-name="ecaron" unicode="&#x11b;" horiz-adv-x="1300" 
d="M778 1255h-254l-225 404h213l139 -250l140 250h213zM657 1135q246 0 407.5 -160.5t164.5 -407.5v-2l-4 -96h-803q23 -90 87.5 -141.5t154.5 -51.5q137 0 213 105l311 -80q-64 -150 -203.5 -235.5t-318.5 -85.5q-168 0 -304 75t-213 207t-77 295q0 162 76.5 294.5
t210.5 208t298 75.5zM659 842q-79 0 -136.5 -38.5t-86.5 -109.5h432q-57 148 -209 148z" />
    <glyph glyph-name="Gbreve" unicode="&#x11e;" horiz-adv-x="1691" 
d="M897 1718q-162 0 -269.5 103.5t-107.5 259.5v30h203v-30q0 -66 46.5 -113t111.5 -47q66 0 112.5 47t46.5 113v30h203v-30q0 -149 -102.5 -256t-243.5 -107zM952 -20q-176 0 -335 67t-273.5 180.5t-182 270.5t-67.5 331t67.5 331t182 271t273 181t333.5 67t333.5 -69
t285.5 -201l-248 -248q-152 166 -371 166q-212 0 -358 -144.5t-146 -353.5t145.5 -353t356.5 -144q154 0 279 84v239h-320v349h649v-787q-274 -237 -604 -237z" />
    <glyph glyph-name="gbreve" unicode="&#x11f;" horiz-adv-x="1413" 
d="M727 1212q-162 0 -269.5 103.5t-107.5 259.5v51h203v-51q0 -66 46.5 -113t111.5 -47q66 0 112.5 47t46.5 113v51h203v-51q0 -149 -102.5 -256t-243.5 -107zM922 1114h350v-1012q0 -172 -77.5 -307.5t-216.5 -211t-314 -75.5q-160 0 -304.5 72t-232.5 195l256 186
q102 -154 272 -154q114 0 186 74.5t81 210.5q-112 -102 -281 -102q-119 0 -224.5 43.5t-181 119t-119.5 180.5t-44 224q0 159 74.5 291.5t204 209.5t284.5 77q165 0 287 -86v65zM674 293q109 0 185.5 77.5t76.5 186.5q0 110 -76.5 187t-185.5 77q-111 0 -186.5 -76
t-75.5 -188q0 -110 76 -187t186 -77z" />
    <glyph glyph-name="Gdotaccent" unicode="&#x120;" horiz-adv-x="1691" 
d="M883 1780q-59 0 -100.5 41.5t-41.5 99.5q0 57 42 98t100 41q57 0 98 -41t41 -98q0 -58 -41 -99.5t-98 -41.5zM952 -20q-176 0 -335 67t-273.5 180.5t-182 270.5t-67.5 331t67.5 331t182 271t273 181t333.5 67t333.5 -69t285.5 -201l-248 -248q-152 166 -371 166
q-212 0 -358 -144.5t-146 -353.5t145.5 -353t356.5 -144q154 0 279 84v239h-320v349h649v-787q-274 -237 -604 -237z" />
    <glyph glyph-name="gdotaccent" unicode="&#x121;" horiz-adv-x="1413" 
d="M713 1223q-59 0 -100.5 41.5t-41.5 99.5q0 57 42 98t100 41q57 0 98 -41t41 -98q0 -58 -41 -99.5t-98 -41.5zM922 1114h350v-1012q0 -172 -77.5 -307.5t-216.5 -211t-314 -75.5q-160 0 -304.5 72t-232.5 195l256 186q102 -154 272 -154q114 0 186 74.5t81 210.5
q-112 -102 -281 -102q-119 0 -224.5 43.5t-181 119t-119.5 180.5t-44 224q0 159 74.5 291.5t204 209.5t284.5 77q165 0 287 -86v65zM674 293q109 0 185.5 77.5t76.5 186.5q0 110 -76.5 187t-185.5 77q-111 0 -186.5 -76t-75.5 -188q0 -110 76 -187t186 -77z" />
    <glyph glyph-name="Gcommaaccent" unicode="&#x122;" horiz-adv-x="1691" 
d="M952 -20q-176 0 -335 67t-273.5 180.5t-182 270.5t-67.5 331t67.5 331t182 271t273 181t333.5 67t333.5 -69t285.5 -201l-248 -248q-152 166 -371 166q-212 0 -358 -144.5t-146 -353.5t145.5 -353t356.5 -144q154 0 279 84v239h-320v349h649v-787q-274 -237 -604 -237z
M817 -608l62 465h272l-225 -465h-109z" />
    <glyph glyph-name="gcommaaccent" unicode="&#x123;" horiz-adv-x="1413" 
d="M868 1753v-506h-313l164 506h149zM922 1114h350v-1012q0 -172 -77.5 -307.5t-216.5 -211t-314 -75.5q-160 0 -304.5 72t-232.5 195l256 186q102 -154 272 -154q114 0 186 74.5t81 210.5q-112 -102 -281 -102q-119 0 -224.5 43.5t-181 119t-119.5 180.5t-44 224
q0 159 74.5 291.5t204 209.5t284.5 77q165 0 287 -86v65zM674 293q109 0 185.5 77.5t76.5 186.5q0 110 -76.5 187t-185.5 77q-111 0 -186.5 -76t-75.5 -188q0 -110 76 -187t186 -77z" />
    <glyph glyph-name="Hbar" unicode="&#x126;" horiz-adv-x="1484" 
d="M1397 1450v-213h-60v-1237h-348v655h-493v-655h-349v1237h-57v213h57v209h349v-209h493v209h348v-209h60zM989 1004v233h-493v-233h493z" />
    <glyph glyph-name="hbar" unicode="&#x127;" horiz-adv-x="1241" 
d="M713 1135q177 0 297 -123t120 -303v-709h-348v680q0 59 -40 97t-101 38q-67 0 -111.5 -39t-46.5 -98v-678h-346v1311h-125v192h125v156h346v-156h365v-192h-365v-246q106 70 230 70z" />
    <glyph glyph-name="Itilde" unicode="&#x128;" horiz-adv-x="643" 
d="M66 1733l-193 79q33 134 106 202.5t173 68.5q54 0 101.5 -21t75 -45.5t65 -45.5t75.5 -21q106 0 115 145l186 -76q-68 -274 -285 -274q-57 0 -106.5 19.5t-78.5 43t-63.5 43t-64.5 19.5q-80 0 -106 -137zM147 0v1659h349v-1659h-349z" />
    <glyph glyph-name="itilde" unicode="&#x129;" horiz-adv-x="622" 
d="M55 1229l-192 80q33 134 105.5 202t172.5 68q54 0 101.5 -21t75.5 -45.5t65.5 -45.5t75.5 -21q105 0 114 145l187 -75q-68 -275 -285 -275q-57 0 -106.5 19.5t-78.5 43t-63.5 43t-64.5 19.5q-81 0 -107 -137zM137 0v1114h344v-1114h-344z" />
    <glyph glyph-name="Imacron" unicode="&#x12a;" horiz-adv-x="643" 
d="M-4 1759v213h651v-213h-651zM147 0v1659h349v-1659h-349z" />
    <glyph glyph-name="imacron" unicode="&#x12b;" horiz-adv-x="622" 
d="M-14 1309v213h651v-213h-651zM137 0v1114h344v-1114h-344z" />
    <glyph glyph-name="Iogonek" unicode="&#x12e;" horiz-adv-x="643" 
d="M420 -176l129 -146q-99 -116 -242 -116q-103 0 -175.5 64.5t-72.5 174.5q0 119 88 201v1657h349v-1659h-177q-92 -54 -92 -147q0 -43 22.5 -66t57.5 -23q61 0 113 60z" />
    <glyph glyph-name="iogonek" unicode="&#x12f;" horiz-adv-x="622" 
d="M311 1264q-59 0 -100 41t-41 100q0 57 41.5 98t99.5 41q57 0 98.5 -41t41.5 -98q0 -58 -41.5 -99.5t-98.5 -41.5zM446 -217l129 -145q-49 -58 -112.5 -87.5t-128.5 -29.5q-103 0 -175.5 64.5t-72.5 174.5q0 71 35 134t102 106h-86v1114h344v-1114q-114 -13 -170.5 -67
t-56.5 -121q0 -43 22.5 -65.5t57.5 -22.5q61 0 112 59z" />
    <glyph glyph-name="Idotaccent" unicode="&#x130;" horiz-adv-x="643" 
d="M322 1739q-59 0 -100.5 41.5t-41.5 99.5q0 57 42 98t100 41q57 0 98 -41t41 -98q0 -58 -41 -99.5t-98 -41.5zM147 0v1659h349v-1659h-349z" />
    <glyph glyph-name="dotlessi" unicode="&#x131;" horiz-adv-x="622" 
d="M137 0v1114h344v-1114h-344z" />
    <glyph glyph-name="Kcommaaccent" unicode="&#x136;" horiz-adv-x="1386" 
d="M799 897l587 -897h-419l-471 735v-735h-349v1659h349v-617l460 617h428zM438 -567l62 465h272l-225 -465h-109z" />
    <glyph glyph-name="kcommaaccent" unicode="&#x137;" horiz-adv-x="1267" 
d="M1257 1114l-456 -496l442 -618h-444l-314 467v-467h-348v1659h348v-909l318 364h454zM399 -567l62 465h272l-225 -465h-109z" />
    <glyph glyph-name="Lacute" unicode="&#x139;" horiz-adv-x="1112" 
d="M205 1800l307 383l190 -164l-266 -219h-231zM147 0v1659h349v-1311h594v-348h-943z" />
    <glyph glyph-name="lacute" unicode="&#x13a;" horiz-adv-x="624" 
d="M174 1776l266 403l232 -164l-266 -239h-232zM137 0v1659h346v-1659h-346z" />
    <glyph glyph-name="Lcommaaccent" unicode="&#x13b;" horiz-adv-x="1112" 
d="M147 0v1659h349v-1311h594v-348h-943zM420 -608l61 465h273l-226 -465h-108z" />
    <glyph glyph-name="lcommaaccent" unicode="&#x13c;" horiz-adv-x="624" 
d="M137 0v1659h346v-1659h-346zM113 -567l61 465h272l-225 -465h-108z" />
    <glyph glyph-name="Lcaron" unicode="&#x13d;" horiz-adv-x="1114" 
d="M147 0v1659h349v-1311h594v-348h-943zM719 969v690h362l-116 -690h-246z" />
    <glyph glyph-name="lcaron" unicode="&#x13e;" horiz-adv-x="874" 
d="M137 0v1659h346v-1659h-346zM840 969h-244l70 690h407z" />
    <glyph glyph-name="Lslash" unicode="&#x141;" horiz-adv-x="1112" 
d="M496 348h594v-348h-943v621l-96 -35l-92 241l188 70v762h349v-635l131 47l92 -242l-223 -81v-400z" />
    <glyph glyph-name="lslash" unicode="&#x142;" horiz-adv-x="624" 
d="M657 860l-174 -63v-797h-346v668l-90 -33l-84 221l174 64v739h346v-612l92 34z" />
    <glyph glyph-name="Nacute" unicode="&#x143;" horiz-adv-x="1591" 
d="M680 1759l307 383l191 -164l-267 -219h-231zM1444 -41l-948 926v-885h-349v1700l949 -930v889h348v-1700z" />
    <glyph glyph-name="nacute" unicode="&#x144;" horiz-adv-x="1241" 
d="M479 1231l266 403l232 -164l-266 -239h-232zM137 0v1114h346v-70q97 91 236 91q172 0 291.5 -124t119.5 -302v-709h-348v676q0 63 -41 103t-104 40q-66 0 -109 -40.5t-45 -102.5v-676h-346z" />
    <glyph glyph-name="Ncommaaccent" unicode="&#x145;" horiz-adv-x="1591" 
d="M1444 -41l-948 926v-885h-349v1700l949 -930v889h348v-1700zM598 -567l61 465h273l-225 -465h-109z" />
    <glyph glyph-name="ncommaaccent" unicode="&#x146;" horiz-adv-x="1241" 
d="M137 0v1114h346v-70q97 91 236 91q172 0 291.5 -124t119.5 -302v-709h-348v676q0 63 -41 103t-104 40q-66 0 -109 -40.5t-45 -102.5v-676h-346zM418 -567l61 465h273l-226 -465h-108z" />
    <glyph glyph-name="Ncaron" unicode="&#x147;" horiz-adv-x="1591" 
d="M670 1759l-226 342h213l140 -188l139 188h213l-225 -342h-254zM1444 -41l-948 926v-885h-349v1700l949 -930v889h348v-1700z" />
    <glyph glyph-name="ncaron" unicode="&#x148;" horiz-adv-x="1241" 
d="M489 1214l-225 404h213l139 -250l140 250h213l-226 -404h-254zM137 0v1114h346v-70q97 91 236 91q172 0 291.5 -124t119.5 -302v-709h-348v676q0 63 -41 103t-104 40q-66 0 -109 -40.5t-45 -102.5v-676h-346z" />
    <glyph glyph-name="Eng" unicode="&#x14a;" horiz-adv-x="1591" 
d="M1096 1659h348v-1700q-4 -147 -99 -227t-264 -80h-204v266h149q80 0 80 102v269l-610 596v-885h-349v1700l949 -930v889z" />
    <glyph glyph-name="eng" unicode="&#x14b;" horiz-adv-x="1269" 
d="M719 1135q172 0 291.5 -124t119.5 -302v-764q0 -54 -12 -99.5t-29.5 -78t-46.5 -58t-54.5 -41.5t-62.5 -27t-61.5 -16.5t-60.5 -8.5t-50 -3h-40h-131v256h125q55 0 65 32t10 179v596q0 63 -41 103t-104 40q-66 0 -109 -40.5t-45 -102.5v-676h-346v1114h346v-70
q97 91 236 91z" />
    <glyph glyph-name="Omacron" unicode="&#x14c;" horiz-adv-x="1888" 
d="M618 1800v213h652v-213h-652zM944 -20q-139 0 -269 43t-234.5 121.5t-183 182.5t-121 234t-42.5 268q0 173 67.5 331t181.5 271.5t271 180.5t330 67t331 -67.5t271.5 -181.5t180.5 -271t67 -330t-67.5 -330.5t-181.5 -271t-271 -180.5t-330 -67zM944 328q209 0 355.5 146
t146.5 355t-146.5 355.5t-355.5 146.5t-355.5 -146.5t-146.5 -355.5t146.5 -355t355.5 -146z" />
    <glyph glyph-name="omacron" unicode="&#x14d;" horiz-adv-x="1316" 
d="M334 1309v213h651v-213h-651zM659 -20q-163 0 -297.5 75.5t-212 208.5t-77.5 293t77.5 293t212 209t297.5 76q162 0 296.5 -76.5t212 -209.5t77.5 -292t-77.5 -292t-212 -209t-296.5 -76zM659 307q103 0 174.5 73t71.5 177q0 103 -71.5 175.5t-174.5 72.5
q-106 0 -178.5 -72t-72.5 -176q0 -105 73 -177.5t178 -72.5z" />
    <glyph glyph-name="Ohungarumlaut" unicode="&#x150;" horiz-adv-x="1888" 
d="M834 1800h-232l307 383l191 -164zM1284 1800h-231l307 383l190 -164zM944 -20q-139 0 -269 43t-234.5 121.5t-183 182.5t-121 234t-42.5 268q0 173 67.5 331t181.5 271.5t271 180.5t330 67t331 -67.5t271.5 -181.5t180.5 -271t67 -330t-67.5 -330.5t-181.5 -271
t-271 -180.5t-330 -67zM944 328q209 0 355.5 146t146.5 355t-146.5 355.5t-355.5 146.5t-355.5 -146.5t-146.5 -355.5t146.5 -355t355.5 -146z" />
    <glyph glyph-name="ohungarumlaut" unicode="&#x151;" horiz-adv-x="1316" 
d="M487 1264h-231l266 403l232 -164zM938 1264h-231l266 403l231 -164zM659 -20q-163 0 -297.5 75.5t-212 208.5t-77.5 293t77.5 293t212 209t297.5 76q162 0 296.5 -76.5t212 -209.5t77.5 -292t-77.5 -292t-212 -209t-296.5 -76zM659 307q103 0 174.5 73t71.5 177
q0 103 -71.5 175.5t-174.5 72.5q-106 0 -178.5 -72t-72.5 -176q0 -105 73 -177.5t178 -72.5z" />
    <glyph glyph-name="OE" unicode="&#x152;" horiz-adv-x="2613" 
d="M2517 1311h-717v-307h635v-349h-635v-307h717v-348h-1065v147q-222 -167 -508 -167q-139 0 -269 43t-234.5 121.5t-183 182.5t-121 234t-42.5 268q0 173 67.5 331t181.5 271.5t271 180.5t330 67q280 0 508 -168v148h1065v-348zM944 328q209 0 355.5 146t146.5 355
t-146.5 355.5t-355.5 146.5t-355.5 -146.5t-146.5 -355.5t146.5 -355t355.5 -146z" />
    <glyph glyph-name="oe" unicode="&#x153;" horiz-adv-x="2134" 
d="M1491 1135q121 0 226.5 -42.5t180.5 -117.5t119 -180.5t45 -227.5v-2l-4 -96h-803q23 -90 87.5 -141.5t154.5 -51.5q137 0 213 105l311 -80q-64 -150 -203.5 -235.5t-318.5 -85.5q-126 0 -236 43t-190 122q-80 -78 -186.5 -121.5t-227.5 -43.5q-163 0 -297.5 75.5
t-212 208.5t-77.5 293t77.5 293t212 209t297.5 76q121 0 227.5 -44t186.5 -122q80 78 188 122t230 44zM1493 842q-79 0 -136.5 -38.5t-86.5 -109.5h432q-57 148 -209 148zM659 307q103 0 174.5 73t71.5 177q0 103 -71.5 175.5t-174.5 72.5q-106 0 -178.5 -72t-72.5 -176
q0 -105 73 -177.5t178 -72.5z" />
    <glyph glyph-name="Racute" unicode="&#x154;" horiz-adv-x="1433" 
d="M1065 2019l-266 -219h-232l307 383zM1393 0h-404l-323 584h-170v-584h-349v1659h629q229 0 383 -153.5t154 -383.5q0 -162 -78.5 -290t-212.5 -193zM496 1311v-379h280q86 0 137.5 51t51.5 139q0 86 -51.5 137.5t-137.5 51.5h-280z" />
    <glyph glyph-name="racute" unicode="&#x155;" horiz-adv-x="821" 
d="M332 1272l266 403l231 -164l-266 -239h-231zM760 795q-124 28 -200.5 -43.5t-76.5 -253.5v-498h-346v1114h346v-149q27 85 93.5 127.5t144.5 42.5q27 0 39 -2v-338z" />
    <glyph glyph-name="Rcommaaccent" unicode="&#x156;" horiz-adv-x="1433" 
d="M1022 639l371 -639h-404l-323 584h-170v-584h-349v1659h629q229 0 383 -153.5t154 -383.5q0 -162 -78.5 -290t-212.5 -193zM496 1311v-379h280q86 0 137.5 51t51.5 139q0 86 -51.5 137.5t-137.5 51.5h-280zM545 -608l61 465h273l-226 -465h-108z" />
    <glyph glyph-name="rcommaaccent" unicode="&#x157;" horiz-adv-x="821" 
d="M760 795q-124 28 -200.5 -43.5t-76.5 -253.5v-498h-346v1114h346v-149q27 85 93.5 127.5t144.5 42.5q27 0 39 -2v-338zM113 -608l61 465h272l-225 -465h-108z" />
    <glyph glyph-name="Rcaron" unicode="&#x158;" horiz-adv-x="1433" 
d="M811 1800h-254l-225 342h213l139 -188l139 188h213zM1393 0h-404l-323 584h-170v-584h-349v1659h629q229 0 383 -153.5t154 -383.5q0 -162 -78.5 -290t-212.5 -193zM496 1311v-379h280q86 0 137.5 51t51.5 139q0 86 -51.5 137.5t-137.5 51.5h-280z" />
    <glyph glyph-name="rcaron" unicode="&#x159;" horiz-adv-x="821" 
d="M342 1255l-225 404h213l139 -250l139 250h213l-225 -404h-254zM760 795q-124 28 -200.5 -43.5t-76.5 -253.5v-498h-346v1114h346v-149q27 85 93.5 127.5t144.5 42.5q27 0 39 -2v-338z" />
    <glyph glyph-name="Sacute" unicode="&#x15a;" horiz-adv-x="1208" 
d="M487 1800l308 383l190 -164l-266 -219h-232zM612 -20q-203 0 -360.5 119t-200.5 307l322 145q10 -102 74 -163.5t157 -61.5q85 0 138 50t53 132q0 43 -22.5 78t-60 61t-86.5 49.5t-103 48t-108 52t-103 67t-86.5 87t-60 117t-22.5 153.5q0 201 132.5 329.5t338.5 128.5
q162 0 288 -86t177 -231l-303 -135q-19 55 -60 88t-95 33q-60 0 -96 -33t-36 -86q0 -37 22.5 -67.5t60 -54t87 -46.5t103.5 -48.5t108 -55t103.5 -72t87 -94t60 -125.5t22.5 -162q0 -228 -150 -376t-381 -148z" />
    <glyph glyph-name="sacute" unicode="&#x15b;" horiz-adv-x="991" 
d="M358 1264l267 403l231 -164l-266 -239h-232zM514 -20q-130 0 -255 43.5t-218 109.5l197 242q67 -44 144.5 -74.5t131.5 -30.5q38 0 60 15.5t22 44.5q0 12 -3.5 21.5t-12.5 17.5t-18.5 14t-27 13t-32.5 12t-41.5 14t-46.5 16q-172 63 -246 141.5t-74 196.5
q0 162 116 260.5t298 98.5q233 0 428 -158l-207 -209q-56 42 -122 69t-113 27q-64 0 -64 -53q0 -29 28.5 -45t141.5 -55q56 -20 96 -37t88.5 -48.5t78.5 -67.5t50.5 -90.5t20.5 -121.5q0 -168 -114.5 -267t-305.5 -99z" />
    <glyph glyph-name="Scedilla" unicode="&#x15e;" horiz-adv-x="1208" 
d="M1143 504q0 -209 -127 -352t-330 -168l-63 -72q90 -12 144 -73.5t54 -151.5q0 -98 -63.5 -163t-169.5 -65q-130 0 -207 86l90 121q46 -69 115 -69q37 0 62.5 24.5t25.5 65.5q0 44 -27 68t-63 24q-21 0 -43 -9.5t-33 -23.5l-94 94l104 146q-173 26 -301 140t-166 280
l322 145q10 -102 74 -163.5t157 -61.5q85 0 138 50t53 132q0 43 -22.5 78t-60 61t-86.5 49.5t-103 48t-108 52t-103 67t-86.5 87t-60 117t-22.5 153.5q0 201 132.5 329.5t338.5 128.5q162 0 288 -86t177 -231l-303 -135q-19 55 -60 88t-95 33q-60 0 -96 -33t-36 -86
q0 -37 22.5 -67.5t60 -54t87 -46.5t103.5 -48.5t108 -55t103.5 -72t87 -94t60 -125.5t22.5 -162z" />
    <glyph glyph-name="scedilla" unicode="&#x15f;" horiz-adv-x="991" 
d="M600 711q56 -20 96 -37t88.5 -48.5t78.5 -67.5t50.5 -90.5t20.5 -121.5q0 -150 -92 -246t-250 -116l-64 -72q90 -12 144.5 -73.5t54.5 -151.5q0 -98 -63.5 -163t-169.5 -65q-130 0 -207 86l90 121q46 -69 115 -69q37 0 62.5 24.5t25.5 65.5q0 44 -27.5 68t-63.5 24
q-21 0 -42.5 -9.5t-32.5 -23.5l-95 94l105 146q-107 13 -207.5 53t-175.5 94l197 242q67 -44 144.5 -74.5t131.5 -30.5q38 0 60 15.5t22 44.5q0 12 -3.5 21.5t-12.5 17.5t-18.5 14t-27 13t-32.5 12t-41.5 14t-46.5 16q-172 63 -246 141.5t-74 196.5q0 162 116 260.5
t298 98.5q233 0 428 -158l-207 -209q-56 42 -122 69t-113 27q-64 0 -64 -53q0 -29 28.5 -45t141.5 -55z" />
    <glyph glyph-name="Scaron" unicode="&#x160;" horiz-adv-x="1208" 
d="M477 1800l-225 342h213l139 -188l139 188h213l-225 -342h-254zM612 -20q-203 0 -360.5 119t-200.5 307l322 145q10 -102 74 -163.5t157 -61.5q85 0 138 50t53 132q0 43 -22.5 78t-60 61t-86.5 49.5t-103 48t-108 52t-103 67t-86.5 87t-60 117t-22.5 153.5
q0 201 132.5 329.5t338.5 128.5q162 0 288 -86t177 -231l-303 -135q-19 55 -60 88t-95 33q-60 0 -96 -33t-36 -86q0 -37 22.5 -67.5t60 -54t87 -46.5t103.5 -48.5t108 -55t103.5 -72t87 -94t60 -125.5t22.5 -162q0 -228 -150 -376t-381 -148z" />
    <glyph glyph-name="scaron" unicode="&#x161;" horiz-adv-x="991" 
d="M369 1247l-226 404h213l140 -250l139 250h213l-225 -404h-254zM514 -20q-130 0 -255 43.5t-218 109.5l197 242q67 -44 144.5 -74.5t131.5 -30.5q38 0 60 15.5t22 44.5q0 12 -3.5 21.5t-12.5 17.5t-18.5 14t-27 13t-32.5 12t-41.5 14t-46.5 16q-172 63 -246 141.5
t-74 196.5q0 162 116 260.5t298 98.5q233 0 428 -158l-207 -209q-56 42 -122 69t-113 27q-64 0 -64 -53q0 -29 28.5 -45t141.5 -55q56 -20 96 -37t88.5 -48.5t78.5 -67.5t50.5 -90.5t20.5 -121.5q0 -168 -114.5 -267t-305.5 -99z" />
    <glyph glyph-name="uni0162" unicode="&#x162;" horiz-adv-x="1234" 
d="M791 0h-115l-41 -47q90 -12 144.5 -73.5t54.5 -151.5q0 -98 -64 -163t-170 -65q-130 0 -207 86l90 121q46 -69 115 -69q37 0 62.5 24.5t25.5 65.5q0 44 -27 68t-63 24q-21 0 -43 -9.5t-33 -23.5l-94 94l86 119h-70v1311h-405v348h1157v-348h-403v-1311z" />
    <glyph glyph-name="uni0163" unicode="&#x163;" horiz-adv-x="837" 
d="M594 0h-78l-78 -88q90 -12 144.5 -73.5t54.5 -151.5q0 -98 -64 -163t-170 -65q-129 0 -206 86l90 121q46 -69 114 -69q37 0 62.5 24.5t25.5 65.5q0 44 -27 68t-63 24q-21 0 -42.5 -9.5t-32.5 -23.5l-95 94l115 160h-98v817h-203v297h203v371h348v-371h201v-297h-201v-817
z" />
    <glyph glyph-name="Tcaron" unicode="&#x164;" horiz-adv-x="1234" 
d="M489 1759l-225 342h213l139 -188l140 188h213l-226 -342h-254zM442 0v1311h-405v348h1157v-348h-403v-1311h-349z" />
    <glyph glyph-name="tcaron" unicode="&#x165;" horiz-adv-x="831" 
d="M971 1303h-215l61 608h359zM246 0v817h-203v297h203v371h348v-371h201v-297h-201v-817h-348z" />
    <glyph glyph-name="Tbar" unicode="&#x166;" horiz-adv-x="1234" 
d="M1194 1311h-403v-385h243v-193h-243v-733h-349v733h-243v193h243v385h-405v348h1157v-348z" />
    <glyph glyph-name="tbar" unicode="&#x167;" horiz-adv-x="837" 
d="M795 817h-201v-164h156v-192h-156v-461h-348v461h-156v192h156v164h-203v297h203v371h348v-371h201v-297z" />
    <glyph glyph-name="utilde" unicode="&#x169;" horiz-adv-x="1202" 
d="M346 1229l-192 80q33 134 105.5 202t172.5 68q54 0 101.5 -21t75.5 -45.5t65.5 -45.5t75.5 -21q105 0 114 145l187 -75q-68 -275 -285 -275q-57 0 -106.5 19.5t-78.5 43t-63.5 43t-64.5 19.5q-81 0 -107 -137zM600 -20q-224 0 -355.5 121t-131.5 327v686h348v-684
q0 -66 36.5 -101.5t102.5 -35.5q68 0 104.5 35.5t36.5 101.5v684h349v-686q0 -205 -133 -326.5t-357 -121.5z" />
    <glyph glyph-name="Umacron" unicode="&#x16a;" horiz-adv-x="1474" 
d="M412 1759v213h651v-213h-651zM131 1659h348v-1073q0 -109 74.5 -183.5t183.5 -74.5t183.5 74.5t74.5 183.5v1073h348v-1073q0 -165 -81 -304.5t-220.5 -220.5t-304.5 -81t-304.5 81t-220.5 220.5t-81 304.5v1073z" />
    <glyph glyph-name="umacron" unicode="&#x16b;" horiz-adv-x="1202" 
d="M276 1309v213h652v-213h-652zM600 -20q-224 0 -355.5 121t-131.5 327v686h348v-684q0 -66 36.5 -101.5t102.5 -35.5q68 0 104.5 35.5t36.5 101.5v684h349v-686q0 -205 -133 -326.5t-357 -121.5z" />
    <glyph glyph-name="Uring" unicode="&#x16e;" horiz-adv-x="1474" 
d="M737 1552q-133 0 -228 93.5t-95 230.5q0 133 93 228.5t230 95.5q133 0 228.5 -93.5t95.5 -230.5q0 -135 -94.5 -229.5t-229.5 -94.5zM737 1722q64 0 109 44.5t45 109.5q0 64 -44.5 109t-109.5 45q-64 0 -108.5 -44.5t-44.5 -109.5q0 -64 44 -109t109 -45zM131 1659h348
v-1073q0 -109 74.5 -183.5t183.5 -74.5t183.5 74.5t74.5 183.5v1073h348v-1073q0 -165 -81 -304.5t-220.5 -220.5t-304.5 -81t-304.5 81t-220.5 220.5t-81 304.5v1073z" />
    <glyph glyph-name="uring" unicode="&#x16f;" horiz-adv-x="1202" 
d="M602 1217q-133 0 -228 93t-95 230q0 133 93 228.5t230 95.5q133 0 228.5 -93.5t95.5 -230.5q0 -135 -94.5 -229t-229.5 -94zM602 1386q64 0 109 44.5t45 109.5q0 64 -44.5 109t-109.5 45q-64 0 -108.5 -44.5t-44.5 -109.5q0 -64 44 -109t109 -45zM600 -20
q-224 0 -355.5 121t-131.5 327v686h348v-684q0 -66 36.5 -101.5t102.5 -35.5q68 0 104.5 35.5t36.5 101.5v684h349v-686q0 -205 -133 -326.5t-357 -121.5z" />
    <glyph glyph-name="Uhungarumlaut" unicode="&#x170;" horiz-adv-x="1474" 
d="M627 1759h-232l307 383l191 -164zM1077 1759h-231l307 383l190 -164zM131 1659h348v-1073q0 -109 74.5 -183.5t183.5 -74.5t183.5 74.5t74.5 183.5v1073h348v-1073q0 -165 -81 -304.5t-220.5 -220.5t-304.5 -81t-304.5 81t-220.5 220.5t-81 304.5v1073z" />
    <glyph glyph-name="uhungarumlaut" unicode="&#x171;" horiz-adv-x="1202" 
d="M430 1264h-231l266 403l231 -164zM881 1264h-232l266 403l232 -164zM600 -20q-224 0 -355.5 121t-131.5 327v686h348v-684q0 -66 36.5 -101.5t102.5 -35.5q68 0 104.5 35.5t36.5 101.5v684h349v-686q0 -205 -133 -326.5t-357 -121.5z" />
    <glyph glyph-name="Uogonek" unicode="&#x172;" horiz-adv-x="1474" 
d="M995 1659h348v-1073q0 -160 -76.5 -297t-209 -219.5t-291.5 -89.5q-43 -46 -43 -107q0 -43 22.5 -65.5t57.5 -22.5q61 0 112 59l129 -145q-49 -58 -112.5 -87.5t-128.5 -29.5q-103 0 -175.5 65t-72.5 175q0 99 59 170q-209 43 -346 209.5t-137 384.5v1073h348v-1073
q0 -109 74.5 -183.5t183.5 -74.5t183.5 74.5t74.5 183.5v1073z" />
    <glyph glyph-name="uogonek" unicode="&#x173;" horiz-adv-x="1202" 
d="M741 1114h349v-686q0 -190 -113 -307.5t-309 -136.5q-74 -25 -110 -71.5t-36 -100.5q0 -43 22.5 -65.5t57.5 -22.5q62 0 113 59l129 -145q-49 -58 -112.5 -87.5t-129.5 -29.5q-103 0 -175.5 64.5t-72.5 174.5q0 144 123 230q-171 32 -267.5 147t-96.5 291v686h348v-684
q0 -66 36.5 -101.5t102.5 -35.5q68 0 104.5 35.5t36.5 101.5v684z" />
    <glyph glyph-name="Wcircumflex" unicode="&#x174;" horiz-adv-x="2160" 
d="M1083 1927l-139 -168h-213l225 322h254l226 -322h-213zM2159 1659l-781 -1700l-297 668l-299 -668l-780 1700h385l406 -963l125 295l-300 668h345l118 -281l117 281h344l-299 -668l125 -295l406 963h385z" />
    <glyph glyph-name="wcircumflex" unicode="&#x175;" horiz-adv-x="1746" 
d="M522 1255l226 404h253l226 -404h-213l-140 250l-139 -250h-213zM1757 1114l-555 -1155l-328 705l-329 -705l-555 1155h379l194 -469l201 469h219l201 -469l194 469h379z" />
    <glyph glyph-name="Ycircumflex" unicode="&#x176;" horiz-adv-x="1355" 
d="M326 1759l225 322h254l225 -322h-213l-139 168l-139 -168h-213zM504 0v782l-516 877h426l264 -518l266 518h424l-516 -877v-782h-348z" />
    <glyph glyph-name="ycircumflex" unicode="&#x177;" horiz-adv-x="1234" 
d="M618 1505l-139 -250h-213l226 404h253l226 -404h-213zM858 1114h373l-635 -1585h-363l205 524l-434 1061h381l231 -633z" />
    <glyph glyph-name="Ydieresis" unicode="&#x178;" horiz-adv-x="1355" 
d="M471 1780q-59 0 -100 41t-41 100q0 57 41.5 98t99.5 41q57 0 98 -41t41 -98q0 -58 -41 -99.5t-98 -41.5zM885 1780q-59 0 -100.5 41.5t-41.5 99.5q0 57 42 98t100 41q57 0 98 -41t41 -98q0 -58 -41 -99.5t-98 -41.5zM504 0v782l-516 877h426l264 -518l266 518h424
l-516 -877v-782h-348z" />
    <glyph glyph-name="Zacute" unicode="&#x179;" horiz-adv-x="1533" 
d="M649 1759l307 383l191 -164l-266 -219h-232zM76 0l772 1311h-705v348h1313l-772 -1311h741v-348h-1349z" />
    <glyph glyph-name="zacute" unicode="&#x17a;" horiz-adv-x="1187" 
d="M457 1231l266 403l231 -164l-266 -239h-231zM45 0l518 817h-454v297h1017l-520 -817h484v-297h-1045z" />
    <glyph glyph-name="Zdotaccent" unicode="&#x17b;" horiz-adv-x="1533" 
d="M766 1739q-58 0 -99.5 41.5t-41.5 99.5q0 57 41.5 98t99.5 41q57 0 98 -41t41 -98q0 -58 -41 -99.5t-98 -41.5zM76 0l772 1311h-705v348h1313l-772 -1311h741v-348h-1349z" />
    <glyph glyph-name="zdotaccent" unicode="&#x17c;" horiz-adv-x="1187" 
d="M594 1223q-58 0 -99.5 41.5t-41.5 99.5q0 57 41.5 98t99.5 41q57 0 98 -41t41 -98q0 -58 -41 -99.5t-98 -41.5zM45 0l518 817h-454v297h1017l-520 -817h484v-297h-1045z" />
    <glyph glyph-name="Zcaron" unicode="&#x17d;" horiz-adv-x="1533" 
d="M639 1759l-225 342h213l139 -188l139 188h213l-225 -342h-254zM76 0l772 1311h-705v348h1313l-772 -1311h741v-348h-1349z" />
    <glyph glyph-name="zcaron" unicode="&#x17e;" horiz-adv-x="1187" 
d="M467 1214l-225 404h213l139 -250l139 250h213l-225 -404h-254zM45 0l518 817h-454v297h1017l-520 -817h484v-297h-1045z" />
    <glyph glyph-name="uni01CD" unicode="&#x1cd;" horiz-adv-x="1564" 
d="M909 1800h-254l-225 342h213l139 -188l140 188h213zM1169 0l-94 225h-586l-94 -225h-393l780 1700l781 -1700h-394zM618 532h328l-164 394z" />
    <glyph glyph-name="uni01CE" unicode="&#x1ce;" horiz-adv-x="1406" 
d="M594 1255l-225 404h213l139 -250l139 250h213l-225 -404h-254zM623 -20q-112 0 -214.5 46t-176 123.5t-117 184.5t-43.5 225q0 157 74 290.5t201 211.5t276 78q173 0 295 -90v65h348v-1114h-328l-4 80q-127 -100 -311 -100zM674 303q106 0 179 74.5t73 181.5
q0 106 -73 180t-179 74q-107 0 -180.5 -73.5t-73.5 -180.5t74 -181.5t180 -74.5z" />
    <glyph glyph-name="uni01CF" unicode="&#x1cf;" horiz-adv-x="643" 
d="M195 1759l-226 342h213l140 -188l139 188h213l-225 -342h-254zM147 0v1659h349v-1659h-349z" />
    <glyph glyph-name="uni01D0" unicode="&#x1d0;" horiz-adv-x="622" 
d="M184 1255l-225 404h213l139 -250l140 250h213l-226 -404h-254zM137 0v1114h344v-1114h-344z" />
    <glyph glyph-name="uni01D1" unicode="&#x1d1;" horiz-adv-x="1888" 
d="M817 1800l-225 342h213l139 -188l139 188h213l-225 -342h-254zM944 -20q-139 0 -269 43t-234.5 121.5t-183 182.5t-121 234t-42.5 268q0 173 67.5 331t181.5 271.5t271 180.5t330 67t331 -67.5t271.5 -181.5t180.5 -271t67 -330t-67.5 -330.5t-181.5 -271t-271 -180.5
t-330 -67zM944 328q209 0 355.5 146t146.5 355t-146.5 355.5t-355.5 146.5t-355.5 -146.5t-146.5 -355.5t146.5 -355t355.5 -146z" />
    <glyph glyph-name="uni01D2" unicode="&#x1d2;" horiz-adv-x="1316" 
d="M532 1255l-225 404h213l139 -250l140 250h213l-226 -404h-254zM659 -20q-163 0 -297.5 75.5t-212 208.5t-77.5 293t77.5 293t212 209t297.5 76q162 0 296.5 -76.5t212 -209.5t77.5 -292t-77.5 -292t-212 -209t-296.5 -76zM659 307q103 0 174.5 73t71.5 177
q0 103 -71.5 175.5t-174.5 72.5q-106 0 -178.5 -72t-72.5 -176q0 -105 73 -177.5t178 -72.5z" />
    <glyph glyph-name="uni01D3" unicode="&#x1d3;" horiz-adv-x="1474" 
d="M610 1759l-225 342h213l139 -188l140 188h213l-226 -342h-254zM131 1659h348v-1073q0 -109 74.5 -183.5t183.5 -74.5t183.5 74.5t74.5 183.5v1073h348v-1073q0 -165 -81 -304.5t-220.5 -220.5t-304.5 -81t-304.5 81t-220.5 220.5t-81 304.5v1073z" />
    <glyph glyph-name="uni01D4" unicode="&#x1d4;" horiz-adv-x="1202" 
d="M475 1255l-225 404h213l139 -250l139 250h213l-225 -404h-254zM600 -20q-224 0 -355.5 121t-131.5 327v686h348v-684q0 -66 36.5 -101.5t102.5 -35.5q68 0 104.5 35.5t36.5 101.5v684h349v-686q0 -205 -133 -326.5t-357 -121.5z" />
    <glyph glyph-name="uni01D5" unicode="&#x1d5;" horiz-adv-x="1474" 
d="M412 2181v213h651v-213h-651zM530 1780q-58 0 -99.5 41t-41.5 100q0 57 41.5 98t99.5 41q57 0 98.5 -41t41.5 -98q0 -58 -41.5 -99.5t-98.5 -41.5zM944 1780q-58 0 -99.5 41t-41.5 100q0 57 41.5 98t99.5 41q57 0 98 -41t41 -98q0 -58 -41 -99.5t-98 -41.5zM131 1659h348
v-1073q0 -109 74.5 -183.5t183.5 -74.5t183.5 74.5t74.5 183.5v1073h348v-1073q0 -165 -81 -304.5t-220.5 -220.5t-304.5 -81t-304.5 81t-220.5 220.5t-81 304.5v1073z" />
    <glyph glyph-name="uni01D6" unicode="&#x1d6;" horiz-adv-x="1202" 
d="M276 1739v213h652v-213h-652zM395 1264q-59 0 -100 41t-41 100q0 57 41.5 98t99.5 41q57 0 98.5 -41t41.5 -98q0 -58 -41.5 -99.5t-98.5 -41.5zM809 1264q-59 0 -100 41t-41 100q0 57 41.5 98t99.5 41q57 0 98 -41t41 -98q0 -58 -41 -99.5t-98 -41.5zM600 -20
q-224 0 -355.5 121t-131.5 327v686h348v-684q0 -66 36.5 -101.5t102.5 -35.5q68 0 104.5 35.5t36.5 101.5v684h349v-686q0 -205 -133 -326.5t-357 -121.5z" />
    <glyph glyph-name="uni01D7" unicode="&#x1d7;" horiz-adv-x="1474" 
d="M621 2181l307 383l190 -164l-266 -219h-231zM530 1780q-58 0 -99.5 41t-41.5 100q0 57 41.5 98t99.5 41q57 0 98.5 -41t41.5 -98q0 -58 -41.5 -99.5t-98.5 -41.5zM944 1780q-58 0 -99.5 41t-41.5 100q0 57 41.5 98t99.5 41q57 0 98 -41t41 -98q0 -58 -41 -99.5t-98 -41.5
zM131 1659h348v-1073q0 -109 74.5 -183.5t183.5 -74.5t183.5 74.5t74.5 183.5v1073h348v-1073q0 -165 -81 -304.5t-220.5 -220.5t-304.5 -81t-304.5 81t-220.5 220.5t-81 304.5v1073z" />
    <glyph glyph-name="uni01D8" unicode="&#x1d8;" horiz-adv-x="1202" 
d="M465 1702l266 403l232 -163l-267 -240h-231zM395 1264q-59 0 -100 41t-41 100q0 57 41.5 98t99.5 41q57 0 98.5 -41t41.5 -98q0 -58 -41.5 -99.5t-98.5 -41.5zM809 1264q-59 0 -100 41t-41 100q0 57 41.5 98t99.5 41q57 0 98 -41t41 -98q0 -58 -41 -99.5t-98 -41.5z
M600 -20q-224 0 -355.5 121t-131.5 327v686h348v-684q0 -66 36.5 -101.5t102.5 -35.5q68 0 104.5 35.5t36.5 101.5v684h349v-686q0 -205 -133 -326.5t-357 -121.5z" />
    <glyph glyph-name="uni01D9" unicode="&#x1d9;" horiz-adv-x="1474" 
d="M610 2181l-225 342h213l139 -188l140 188h213l-226 -342h-254zM530 1780q-58 0 -99.5 41t-41.5 100q0 57 41.5 98t99.5 41q57 0 98.5 -41t41.5 -98q0 -58 -41.5 -99.5t-98.5 -41.5zM944 1780q-58 0 -99.5 41t-41.5 100q0 57 41.5 98t99.5 41q57 0 98 -41t41 -98
q0 -58 -41 -99.5t-98 -41.5zM131 1659h348v-1073q0 -109 74.5 -183.5t183.5 -74.5t183.5 74.5t74.5 183.5v1073h348v-1073q0 -165 -81 -304.5t-220.5 -220.5t-304.5 -81t-304.5 81t-220.5 220.5t-81 304.5v1073z" />
    <glyph glyph-name="uni01DA" unicode="&#x1da;" horiz-adv-x="1202" 
d="M475 1686l-225 403h213l139 -250l139 250h213l-225 -403h-254zM395 1264q-59 0 -100 41t-41 100q0 57 41.5 98t99.5 41q57 0 98.5 -41t41.5 -98q0 -58 -41.5 -99.5t-98.5 -41.5zM809 1264q-59 0 -100 41t-41 100q0 57 41.5 98t99.5 41q57 0 98 -41t41 -98
q0 -58 -41 -99.5t-98 -41.5zM600 -20q-224 0 -355.5 121t-131.5 327v686h348v-684q0 -66 36.5 -101.5t102.5 -35.5q68 0 104.5 35.5t36.5 101.5v684h349v-686q0 -205 -133 -326.5t-357 -121.5z" />
    <glyph glyph-name="uni01DB" unicode="&#x1db;" horiz-adv-x="1474" 
d="M621 2181l-226 178l191 164l266 -342h-231zM530 1780q-58 0 -99.5 41t-41.5 100q0 57 41.5 98t99.5 41q57 0 98.5 -41t41.5 -98q0 -58 -41.5 -99.5t-98.5 -41.5zM944 1780q-58 0 -99.5 41t-41.5 100q0 57 41.5 98t99.5 41q57 0 98 -41t41 -98q0 -58 -41 -99.5t-98 -41.5z
M131 1659h348v-1073q0 -109 74.5 -183.5t183.5 -74.5t183.5 74.5t74.5 183.5v1073h348v-1073q0 -165 -81 -304.5t-220.5 -220.5t-304.5 -81t-304.5 81t-220.5 220.5t-81 304.5v1073z" />
    <glyph glyph-name="uni01DC" unicode="&#x1dc;" horiz-adv-x="1202" 
d="M485 1694l-266 239l232 164l266 -403h-232zM395 1264q-59 0 -100 41t-41 100q0 57 41.5 98t99.5 41q57 0 98.5 -41t41.5 -98q0 -58 -41.5 -99.5t-98.5 -41.5zM809 1264q-59 0 -100 41t-41 100q0 57 41.5 98t99.5 41q57 0 98 -41t41 -98q0 -58 -41 -99.5t-98 -41.5z
M600 -20q-224 0 -355.5 121t-131.5 327v686h348v-684q0 -66 36.5 -101.5t102.5 -35.5q68 0 104.5 35.5t36.5 101.5v684h349v-686q0 -205 -133 -326.5t-357 -121.5z" />
    <glyph glyph-name="Oslashacute" unicode="&#x1fe;" horiz-adv-x="1888" 
d="M1325 2019l-266 -219h-232l308 383zM1620 1346q174 -228 174 -517q0 -173 -67.5 -330.5t-181.5 -271t-271 -180.5t-330 -67q-288 0 -516 174l-90 -91l-160 160l90 90q-174 228 -174 516q0 173 67.5 331t181.5 271.5t271 180.5t330 67q288 0 516 -174l90 90l160 -159z
M442 829q0 -140 76 -266l692 692q-126 76 -266 76q-209 0 -355.5 -146.5t-146.5 -355.5zM944 328q209 0 355.5 146t146.5 355q0 141 -76 267l-692 -693q124 -75 266 -75z" />
    <glyph glyph-name="oslashacute" unicode="&#x1ff;" horiz-adv-x="1316" 
d="M1020 1511l-266 -239h-232l266 403zM1128 907q117 -152 117 -350q0 -159 -77.5 -292t-212 -209t-296.5 -76q-194 0 -350 108l-94 -94l-117 117l92 92q-118 156 -118 354q0 160 77.5 293t212 209t297.5 76q196 0 351 -111l96 96l117 -119zM408 557q0 -61 24 -111l334 334
q-48 25 -107 25q-106 0 -178.5 -72t-72.5 -176zM659 307q103 0 174.5 73t71.5 177q0 56 -22 105l-332 -332q54 -23 108 -23z" />
    <glyph glyph-name="Scommaaccent" unicode="&#x218;" horiz-adv-x="1208" 
d="M612 -20q-203 0 -360.5 119t-200.5 307l322 145q10 -102 74 -163.5t157 -61.5q85 0 138 50t53 132q0 43 -22.5 78t-60 61t-86.5 49.5t-103 48t-108 52t-103 67t-86.5 87t-60 117t-22.5 153.5q0 201 132.5 329.5t338.5 128.5q162 0 288 -86t177 -231l-303 -135
q-19 55 -60 88t-95 33q-60 0 -96 -33t-36 -86q0 -37 22.5 -67.5t60 -54t87 -46.5t103.5 -48.5t108 -55t103.5 -72t87 -94t60 -125.5t22.5 -162q0 -228 -150 -376t-381 -148zM406 -608l61 465h272l-225 -465h-108z" />
    <glyph glyph-name="scommaaccent" unicode="&#x219;" horiz-adv-x="991" 
d="M514 -20q-130 0 -255 43.5t-218 109.5l197 242q67 -44 144.5 -74.5t131.5 -30.5q38 0 60 15.5t22 44.5q0 12 -3.5 21.5t-12.5 17.5t-18.5 14t-27 13t-32.5 12t-41.5 14t-46.5 16q-172 63 -246 141.5t-74 196.5q0 162 116 260.5t298 98.5q233 0 428 -158l-207 -209
q-56 42 -122 69t-113 27q-64 0 -64 -53q0 -29 28.5 -45t141.5 -55q56 -20 96 -37t88.5 -48.5t78.5 -67.5t50.5 -90.5t20.5 -121.5q0 -168 -114.5 -267t-305.5 -99zM311 -608l62 465h272l-225 -465h-109z" />
    <glyph glyph-name="uni021A" unicode="&#x21a;" horiz-adv-x="1234" 
d="M442 0v1311h-405v348h1157v-348h-403v-1311h-349zM418 -567l61 465h273l-226 -465h-108z" />
    <glyph glyph-name="uni021B" unicode="&#x21b;" horiz-adv-x="837" 
d="M246 0v817h-203v297h203v371h348v-371h201v-297h-201v-817h-348zM221 -608l62 465h272l-225 -465h-109z" />
    <glyph glyph-name="circumflex" unicode="&#x2c6;" horiz-adv-x="847" 
d="M72 1174l225 403h254l225 -403h-213l-139 249l-139 -249h-213z" />
    <glyph glyph-name="caron" unicode="&#x2c7;" horiz-adv-x="847" 
d="M297 1174l-225 403h213l139 -250l139 250h213l-225 -403h-254z" />
    <glyph glyph-name="breve" unicode="&#x2d8;" horiz-adv-x="866" 
d="M449 1163q-162 0 -269.5 103.5t-107.5 259.5v51h202v-51q0 -66 46.5 -113t111.5 -47q66 0 113 47t47 113v51h203v-51q0 -149 -102.5 -256t-243.5 -107z" />
    <glyph glyph-name="dotaccent" unicode="&#x2d9;" horiz-adv-x="423" 
d="M213 1174q-59 0 -100 41t-41 100q0 57 41.5 98t99.5 41q57 0 98 -41t41 -98q0 -58 -41 -99.5t-98 -41.5z" />
    <glyph glyph-name="ring" unicode="&#x2da;" horiz-adv-x="790" 
d="M395 1126q-133 0 -228 93.5t-95 230.5q0 133 93 228.5t230 95.5q133 0 228.5 -93.5t95.5 -230.5q0 -135 -94.5 -229.5t-229.5 -94.5zM395 1296q64 0 109 44.5t45 109.5q0 64 -44.5 109t-109.5 45q-64 0 -108.5 -44.5t-44.5 -109.5q0 -64 44 -109t109 -45z" />
    <glyph glyph-name="ogonek" unicode="&#x2db;" horiz-adv-x="659" 
d="M98 -240q0 103 70.5 183.5t206.5 115.5l119 -59q-114 -13 -171 -67t-57 -121q0 -43 22.5 -65.5t57.5 -22.5q62 0 113 59l129 -145q-49 -58 -112.5 -87.5t-129.5 -29.5q-103 0 -175.5 64.5t-72.5 174.5z" />
    <glyph glyph-name="tilde" unicode="&#x2dc;" horiz-adv-x="1040" 
d="M264 1147l-192 80q33 134 105.5 202t172.5 68q54 0 101.5 -21t75.5 -45.5t65.5 -45.5t75.5 -21q105 0 114 145l187 -75q-68 -275 -285 -275q-57 0 -106.5 19.5t-78.5 43t-63.5 43t-64.5 19.5q-81 0 -107 -137z" />
    <glyph glyph-name="hungarumlaut" unicode="&#x2dd;" horiz-adv-x="1091" 
d="M303 1182h-231l266 403l231 -164zM754 1182h-232l266 403l232 -164z" />
    <glyph glyph-name="gravecomb" unicode="&#x300;" 
d="M-303 1182l-266 239l231 164l266 -403h-231z" />
    <glyph glyph-name="acutecomb" unicode="&#x301;" 
d="M-569 1182l266 403l231 -164l-266 -239h-231z" />
    <glyph glyph-name="uni0302" unicode="&#x302;" 
d="M-776 1174l225 403h254l225 -403h-213l-139 249l-139 -249h-213z" />
    <glyph glyph-name="tildecomb" unicode="&#x303;" 
d="M-776 1147l-193 80q33 134 105.5 202t173.5 68q54 0 101.5 -21t75 -45.5t65 -45.5t75.5 -21q106 0 115 145l186 -75q-68 -275 -284 -275q-57 0 -107 19.5t-79 43t-63.5 43t-64.5 19.5q-80 0 -106 -137z" />
    <glyph glyph-name="uni0304" unicode="&#x304;" 
d="M-723 1219v213h651v-213h-651z" />
    <glyph glyph-name="uni0306" unicode="&#x306;" 
d="M-418 1163q-162 0 -269.5 103.5t-107.5 259.5v51h203v-51q0 -66 46.5 -113t111.5 -47q66 0 113 47t47 113v51h202v-51q0 -149 -102.5 -256t-243.5 -107z" />
    <glyph glyph-name="uni0307" unicode="&#x307;" 
d="M-211 1174q-59 0 -100 41t-41 100q0 57 41.5 98t99.5 41q57 0 98 -41t41 -98q0 -58 -41 -99.5t-98 -41.5z" />
    <glyph glyph-name="uni0308" unicode="&#x308;" 
d="M-625 1264q-59 0 -100 41t-41 100q0 57 41.5 98t99.5 41q57 0 98.5 -41t41.5 -98q0 -58 -41.5 -99.5t-98.5 -41.5zM-211 1264q-59 0 -100 41t-41 100q0 57 41.5 98t99.5 41q57 0 98 -41t41 -98q0 -58 -41 -99.5t-98 -41.5z" />
    <glyph glyph-name="uni030A" unicode="&#x30a;" 
d="M-395 1126q-133 0 -228.5 93.5t-95.5 230.5q0 133 93.5 228.5t230.5 95.5q133 0 228 -93.5t95 -230.5q0 -135 -94 -229.5t-229 -94.5zM-395 1296q64 0 108.5 44.5t44.5 109.5q0 64 -44 109t-109 45q-64 0 -109 -44.5t-45 -109.5q0 -64 44.5 -109t109.5 -45z" />
    <glyph glyph-name="uni030B" unicode="&#x30b;" 
d="M-788 1182h-232l266 403l232 -164zM-338 1182h-231l266 403l231 -164z" />
    <glyph glyph-name="uni030C" unicode="&#x30c;" 
d="M-551 1174l-225 403h213l139 -250l139 250h213l-225 -403h-254z" />
    <glyph glyph-name="uni0312" unicode="&#x312;" 
d="M-375 1198l164 506h150v-506h-314z" />
    <glyph glyph-name="uni0326" unicode="&#x326;" 
d="M-406 -608l62 465h272l-225 -465h-109z" />
    <glyph glyph-name="uni0327" unicode="&#x327;" 
d="M-270 -88q90 -12 144 -73.5t54 -151.5q0 -98 -63.5 -163t-169.5 -65q-130 0 -207 86l90 121q46 -69 115 -69q37 0 62.5 24.5t25.5 65.5q0 44 -27 68t-63 24q-21 0 -43 -9.5t-33 -23.5l-94 94l127 176h174z" />
    <glyph glyph-name="uni0328" unicode="&#x328;" 
d="M-561 -240q0 103 70 183.5t206 115.5l119 -59q-114 -13 -170.5 -67t-56.5 -121q0 -43 22.5 -65.5t57.5 -22.5q61 0 112 59l129 -145q-49 -58 -112.5 -87.5t-128.5 -29.5q-103 0 -175.5 64.5t-72.5 174.5z" />
    <glyph glyph-name="uni0335" unicode="&#x335;" 
d="M-907 692v193h835v-193h-835z" />
    <glyph glyph-name="uni0336" unicode="&#x336;" 
d="M-1378 682v213h1306v-213h-1306z" />
    <glyph glyph-name="uni1E3E" unicode="&#x1e3e;" horiz-adv-x="1875" 
d="M821 1759l307 383l191 -164l-266 -219h-232zM147 0v1700l791 -987l791 987v-1700h-347v723l-444 -571l-442 571v-723h-349z" />
    <glyph glyph-name="uni1E3F" unicode="&#x1e3f;" horiz-adv-x="1828" 
d="M774 1231l266 403l232 -164l-266 -239h-232zM137 0v1114h348v-49q95 70 209 70q170 0 295 -138q119 138 307 138q180 0 301 -126.5t121 -314.5v-694h-348v674q0 61 -37 101t-94 40q-60 0 -98.5 -43t-38.5 -110v-662h-348v674q0 63 -38 102t-98 39q-59 0 -96 -43t-37 -110
v-662h-348z" />
    <glyph glyph-name="uni1E44" unicode="&#x1e44;" horiz-adv-x="1591" 
d="M797 1739q-59 0 -100.5 41.5t-41.5 99.5q0 57 42 98t100 41q57 0 98 -41t41 -98q0 -58 -41 -99.5t-98 -41.5zM1444 -41l-948 926v-885h-349v1700l949 -930v889h348v-1700z" />
    <glyph glyph-name="uni1E45" unicode="&#x1e45;" horiz-adv-x="1241" 
d="M616 1223q-58 0 -99.5 41.5t-41.5 99.5q0 57 41.5 98t99.5 41q57 0 98.5 -41t41.5 -98q0 -58 -41.5 -99.5t-98.5 -41.5zM137 0v1114h346v-70q97 91 236 91q172 0 291.5 -124t119.5 -302v-709h-348v676q0 63 -41 103t-104 40q-66 0 -109 -40.5t-45 -102.5v-676h-346z" />
    <glyph glyph-name="uni1E4C" unicode="&#x1e4c;" horiz-adv-x="1888" 
d="M827 2277l308 383l190 -163l-266 -220h-232zM688 1774l-192 79q33 134 105.5 202.5t172.5 68.5q54 0 101.5 -21t75.5 -45.5t65.5 -45.5t75.5 -21q105 0 114 145l187 -76q-68 -274 -285 -274q-57 0 -106.5 19.5t-78.5 43t-63.5 43t-64.5 19.5q-81 0 -107 -137zM944 -20
q-139 0 -269 43t-234.5 121.5t-183 182.5t-121 234t-42.5 268q0 173 67.5 331t181.5 271.5t271 180.5t330 67t331 -67.5t271.5 -181.5t180.5 -271t67 -330t-67.5 -330.5t-181.5 -271t-271 -180.5t-330 -67zM944 328q209 0 355.5 146t146.5 355t-146.5 355.5t-355.5 146.5
t-355.5 -146.5t-146.5 -355.5t146.5 -355t355.5 -146z" />
    <glyph glyph-name="uni1E4D" unicode="&#x1e4d;" horiz-adv-x="1316" 
d="M522 1724l266 404l232 -164l-266 -240h-232zM403 1229l-192 80q33 134 105.5 202t172.5 68q54 0 101.5 -21t75.5 -45.5t65.5 -45.5t75.5 -21q106 0 115 145l186 -75q-68 -275 -285 -275q-57 0 -106.5 19.5t-78.5 43t-63.5 43t-64.5 19.5q-81 0 -107 -137zM659 -20
q-163 0 -297.5 75.5t-212 208.5t-77.5 293t77.5 293t212 209t297.5 76q162 0 296.5 -76.5t212 -209.5t77.5 -292t-77.5 -292t-212 -209t-296.5 -76zM659 307q103 0 174.5 73t71.5 177q0 103 -71.5 175.5t-174.5 72.5q-106 0 -178.5 -72t-72.5 -176q0 -105 73 -177.5
t178 -72.5z" />
    <glyph glyph-name="Wgrave" unicode="&#x1e80;" horiz-adv-x="2160" 
d="M1198 1759h-231l-226 178l191 164zM2159 1659l-781 -1700l-297 668l-299 -668l-780 1700h385l406 -963l125 295l-300 668h345l118 -281l117 281h344l-299 -668l125 -295l406 963h385z" />
    <glyph glyph-name="wgrave" unicode="&#x1e81;" horiz-adv-x="1746" 
d="M758 1264l-266 239l231 164l266 -403h-231zM1757 1114l-555 -1155l-328 705l-329 -705l-555 1155h379l194 -469l201 469h219l201 -469l194 469h379z" />
    <glyph glyph-name="Wacute" unicode="&#x1e82;" horiz-adv-x="2160" 
d="M1464 1978l-266 -219h-231l307 383zM2159 1659l-781 -1700l-297 668l-299 -668l-780 1700h385l406 -963l125 295l-300 668h345l118 -281l117 281h344l-299 -668l125 -295l406 963h385z" />
    <glyph glyph-name="wacute" unicode="&#x1e83;" horiz-adv-x="1746" 
d="M737 1272l267 403l231 -164l-266 -239h-232zM1757 1114l-555 -1155l-328 705l-329 -705l-555 1155h379l194 -469l201 469h219l201 -469l194 469h379z" />
    <glyph glyph-name="Wdieresis" unicode="&#x1e84;" horiz-adv-x="2160" 
d="M877 1780q-59 0 -100.5 41.5t-41.5 99.5q0 57 42 98t100 41q57 0 98 -41t41 -98q0 -58 -41 -99.5t-98 -41.5zM1290 1780q-58 0 -99.5 41t-41.5 100q0 57 41.5 98t99.5 41q57 0 98.5 -41t41.5 -98q0 -58 -41.5 -99.5t-98.5 -41.5zM2159 1659l-781 -1700l-297 668
l-299 -668l-780 1700h385l406 -963l125 295l-300 668h345l118 -281l117 281h344l-299 -668l125 -295l406 963h385z" />
    <glyph glyph-name="wdieresis" unicode="&#x1e85;" horiz-adv-x="1746" 
d="M668 1264q-59 0 -100.5 41.5t-41.5 99.5q0 57 42 98t100 41q57 0 98 -41t41 -98q0 -58 -41 -99.5t-98 -41.5zM1081 1264q-59 0 -100 41t-41 100q0 57 41.5 98t99.5 41q57 0 98.5 -41t41.5 -98q0 -58 -41.5 -99.5t-98.5 -41.5zM1757 1114l-555 -1155l-328 705l-329 -705
l-555 1155h379l194 -469l201 469h219l201 -469l194 469h379z" />
    <glyph glyph-name="uni1EBC" unicode="&#x1ebc;" horiz-adv-x="1308" 
d="M424 1774l-193 79q33 134 106 202.5t173 68.5q54 0 101.5 -21t75 -45.5t65 -45.5t75.5 -21q106 0 115 145l186 -76q-68 -274 -284 -274q-57 0 -107 19.5t-79 43t-63.5 43t-64.5 19.5q-80 0 -106 -137zM147 0v1659h1065v-348h-716v-307h634v-349h-634v-307h716v-348h-1065
z" />
    <glyph glyph-name="uni1EBD" unicode="&#x1ebd;" horiz-adv-x="1300" 
d="M502 1366q-81 0 -107 -137l-192 80q33 134 105.5 202t172.5 68q54 0 101.5 -21t75.5 -45.5t65.5 -45.5t75.5 -21q105 0 114 145l187 -75q-68 -275 -285 -275q-57 0 -106.5 19.5t-78.5 43t-63.5 43t-64.5 19.5zM657 1135q246 0 407.5 -160.5t164.5 -407.5v-2l-4 -96h-803
q23 -90 87.5 -141.5t154.5 -51.5q137 0 213 105l311 -80q-64 -150 -203.5 -235.5t-318.5 -85.5q-168 0 -304 75t-213 207t-77 295q0 162 76.5 294.5t210.5 208t298 75.5zM659 842q-79 0 -136.5 -38.5t-86.5 -109.5h432q-57 148 -209 148z" />
    <glyph glyph-name="Ygrave" unicode="&#x1ef2;" horiz-adv-x="1355" 
d="M561 1759l-225 178l190 164l267 -342h-232zM504 0v782l-516 877h426l264 -518l266 518h424l-516 -877v-782h-348z" />
    <glyph glyph-name="ygrave" unicode="&#x1ef3;" horiz-adv-x="1234" 
d="M733 1264h-231l-266 239l231 164zM858 1114h373l-635 -1585h-363l205 524l-434 1061h381l231 -633z" />
    <glyph glyph-name="endash" unicode="&#x2013;" horiz-adv-x="1540" 
d="M178 410v348h1184v-348h-1184z" />
    <glyph glyph-name="emdash" unicode="&#x2014;" horiz-adv-x="2129" 
d="M0 410v348h2130v-348h-2130z" />
    <glyph glyph-name="quoteleft" unicode="&#x2018;" horiz-adv-x="612" 
d="M293 969l-234 690h408l70 -690h-244z" />
    <glyph glyph-name="quoteright" unicode="&#x2019;" horiz-adv-x="659" 
d="M340 969h-244l70 690h407z" />
    <glyph glyph-name="quotesinglbase" unicode="&#x201a;" horiz-adv-x="624" 
d="M115 -401l69 690h410l-256 -690h-223z" />
    <glyph glyph-name="quotedblleft" unicode="&#x201c;" horiz-adv-x="1062" 
d="M293 969l-234 690h408l70 -690h-244zM743 969l-192 690h367l69 -690h-244z" />
    <glyph glyph-name="quotedblright" unicode="&#x201d;" horiz-adv-x="1110" 
d="M96 969l70 690h366l-192 -690h-244zM547 969l69 690h408l-233 -690h-244z" />
    <glyph glyph-name="quotedblbase" unicode="&#x201e;" horiz-adv-x="1075" 
d="M115 -401l69 690h369l-215 -690h-223zM565 -401l70 690h409l-256 -690h-223z" />
    <glyph glyph-name="bullet" unicode="&#x2022;" horiz-adv-x="1048" 
d="M520 522q-130 0 -215.5 86t-85.5 217q0 129 89.5 218.5t215.5 89.5q127 0 216 -90t89 -218t-89.5 -215.5t-219.5 -87.5z" />
    <glyph glyph-name="ellipsis" unicode="&#x2026;" horiz-adv-x="2197" 
d="M350 -20q-100 0 -168.5 68.5t-68.5 168.5q0 99 69.5 169.5t167.5 70.5q99 0 169.5 -70.5t70.5 -169.5q0 -101 -68.5 -169t-171.5 -68zM1032 -20q-100 0 -168.5 68.5t-68.5 168.5q0 99 69.5 169.5t167.5 70.5q99 0 169.5 -70.5t70.5 -169.5q0 -101 -68.5 -169t-171.5 -68z
M1714 -20q-100 0 -168.5 68.5t-68.5 168.5q0 99 69.5 169.5t167.5 70.5q99 0 169.5 -70.5t70.5 -169.5q0 -101 -68.5 -169t-171.5 -68z" />
    <glyph glyph-name="perthousand" unicode="&#x2030;" horiz-adv-x="2383" 
d="M410 942q-149 0 -254 108t-105 261q0 152 105 260t254 108t253.5 -107.5t104.5 -260.5t-104.5 -261t-253.5 -108zM100 -2l1041 1661h370l-1040 -1661h-371zM410 1214q43 0 69.5 27t26.5 70t-26.5 69.5t-69.5 26.5q-41 0 -69 -27.5t-28 -68.5t28 -69t69 -28zM1206 -20
q-151 0 -255.5 107t-104.5 261t104.5 261.5t255.5 107.5q149 0 254 -108t105 -261q0 -152 -105.5 -260t-253.5 -108zM1974 -20q-151 0 -255.5 107t-104.5 261t104.5 261.5t255.5 107.5q149 0 254 -108t105 -261q0 -152 -105.5 -260t-253.5 -108zM1206 252q42 0 70.5 27.5
t28.5 68.5t-28.5 68.5t-70.5 27.5q-43 0 -71.5 -27t-28.5 -69q0 -41 28.5 -68.5t71.5 -27.5zM1974 252q42 0 70.5 27.5t28.5 68.5t-28.5 68.5t-70.5 27.5q-43 0 -71.5 -27t-28.5 -69q0 -41 28.5 -68.5t71.5 -27.5z" />
    <glyph glyph-name="fraction" unicode="&#x2044;" horiz-adv-x="448" 
d="M-348 -369l850 2048h295l-850 -2048h-295z" />
    <glyph glyph-name="trademark" unicode="&#x2122;" horiz-adv-x="1310" 
d="M561 977v682l285 -393l287 393v-682h-142v285l-145 -191l-144 189v-283h-141zM217 977v500h-141v141h424v-141h-142v-500h-141z" />
    <glyph glyph-name="minus" unicode="&#x2212;" horiz-adv-x="1286" 
d="M184 672v315h918v-315h-918z" />
    <glyph glyph-name="uniF8FF" unicode="&#xf8ff;" horiz-adv-x="1744" 
d="M872 41q-158 0 -302 62t-248 166t-166 248t-62 302t62 302.5t166 248.5t248 165.5t302 61.5q127 0 246 -39t214.5 -111t167.5 -168t111.5 -214.5t39.5 -245.5q0 -211 -104.5 -390t-284 -283.5t-390.5 -104.5zM872 115q143 0 273.5 56t225 150.5t150.5 224.5t56 273
q0 191 -94.5 353.5t-257 257t-353.5 94.5q-143 0 -273 -56t-224.5 -150.5t-150.5 -225t-56 -273.5t56 -273t150.5 -224.5t224.5 -150.5t273 -56zM1280 485q-15 0 -25 13l-297 295q-10 12 -10 27.5t10 25.5l297 297q11 11 26 11t26 -11t11 -27t-11 -26l-271 -271l271 -270
q11 -11 11 -26t-11 -25q-10 -13 -27 -13zM465 485q-15 0 -26 11t-11 26v594q0 15 11 26t26 11t26 -11t11 -26v-594q0 -15 -11 -26t-26 -11zM872 485q-15 0 -25.5 11t-10.5 26v594q0 15 10.5 26t25.5 11t26 -11t11 -26v-594q0 -15 -11 -26t-26 -11zM575 782q-15 0 -25.5 11
t-10.5 26t10.5 26t25.5 11h187q15 0 26 -11t11 -26t-11 -26t-26 -11h-187z" />
    <glyph glyph-name="i.loclTRK" horiz-adv-x="622" 
d="M311 1264q-59 0 -100 41t-41 100q0 57 41.5 98t99.5 41q57 0 98.5 -41t41.5 -98q0 -58 -41.5 -99.5t-98.5 -41.5zM137 0v1114h344v-1114h-344z" />
    <glyph glyph-name="a.ss01" horiz-adv-x="1198" 
d="M580 1114q263 0 385 -104.5t122 -352.5v-657h-311l-16 119h-12q-36 -65 -112.5 -102t-182.5 -37q-70 0 -136.5 20.5t-122 59.5t-89 104t-33.5 147q0 73 21 137.5t91 221.5h553v12q0 81 -40 122.5t-134 41.5h-383v268h400zM547 233q119 0 190 111v117h-274
q-41 -78 -41 -121q0 -53 40 -80t85 -27z" />
    <glyph glyph-name="aacute.ss01" horiz-adv-x="1198" 
d="M961 1511l-267 -239h-231l266 403zM580 1114q263 0 385 -104.5t122 -352.5v-657h-311l-16 119h-12q-36 -65 -112.5 -102t-182.5 -37q-70 0 -136.5 20.5t-122 59.5t-89 104t-33.5 147q0 73 21 137.5t91 221.5h553v12q0 81 -40 122.5t-134 41.5h-383v268h400zM547 233
q119 0 190 111v117h-274q-41 -78 -41 -121q0 -53 40 -80t85 -27z" />
    <glyph glyph-name="abreve.ss01" horiz-adv-x="1198" 
d="M614 1253q-162 0 -269 103.5t-107 259.5v51h202v-51q0 -66 46.5 -113t111.5 -47q66 0 113 47t47 113v51h203v-51q0 -149 -103 -256t-244 -107zM580 1114q263 0 385 -104.5t122 -352.5v-657h-311l-16 119h-12q-36 -65 -112.5 -102t-182.5 -37q-70 0 -136.5 20.5t-122 59.5
t-89 104t-33.5 147q0 73 21 137.5t91 221.5h553v12q0 81 -40 122.5t-134 41.5h-383v268h400zM547 233q119 0 190 111v117h-274q-41 -78 -41 -121q0 -53 40 -80t85 -27z" />
    <glyph glyph-name="uni01CE.ss01" horiz-adv-x="1198" 
d="M727 1255h-254l-225 404h213l139 -250l139 250h213zM580 1114q263 0 385 -104.5t122 -352.5v-657h-311l-16 119h-12q-36 -65 -112.5 -102t-182.5 -37q-70 0 -136.5 20.5t-122 59.5t-89 104t-33.5 147q0 73 21 137.5t91 221.5h553v12q0 81 -40 122.5t-134 41.5h-383v268
h400zM547 233q119 0 190 111v117h-274q-41 -78 -41 -121q0 -53 40 -80t85 -27z" />
    <glyph glyph-name="acircumflex.ss01" horiz-adv-x="1198" 
d="M600 1505l-139 -250h-213l225 404h254l225 -404h-213zM580 1114q263 0 385 -104.5t122 -352.5v-657h-311l-16 119h-12q-36 -65 -112.5 -102t-182.5 -37q-70 0 -136.5 20.5t-122 59.5t-89 104t-33.5 147q0 73 21 137.5t91 221.5h553v12q0 81 -40 122.5t-134 41.5h-383v268
h400zM547 233q119 0 190 111v117h-274q-41 -78 -41 -121q0 -53 40 -80t85 -27z" />
    <glyph glyph-name="adieresis.ss01" horiz-adv-x="1198" 
d="M393 1264q-59 0 -100 41t-41 100q0 57 41.5 98t99.5 41q57 0 98 -41t41 -98q0 -58 -41 -99.5t-98 -41.5zM807 1264q-59 0 -100 41t-41 100q0 57 41.5 98t99.5 41q57 0 98 -41t41 -98q0 -58 -41 -99.5t-98 -41.5zM580 1114q263 0 385 -104.5t122 -352.5v-657h-311l-16 119
h-12q-36 -65 -112.5 -102t-182.5 -37q-70 0 -136.5 20.5t-122 59.5t-89 104t-33.5 147q0 73 21 137.5t91 221.5h553v12q0 81 -40 122.5t-134 41.5h-383v268h400zM547 233q119 0 190 111v117h-274q-41 -78 -41 -121q0 -53 40 -80t85 -27z" />
    <glyph glyph-name="agrave.ss01" horiz-adv-x="1198" 
d="M715 1264h-232l-266 239l232 164zM580 1114q263 0 385 -104.5t122 -352.5v-657h-311l-16 119h-12q-36 -65 -112.5 -102t-182.5 -37q-70 0 -136.5 20.5t-122 59.5t-89 104t-33.5 147q0 73 21 137.5t91 221.5h553v12q0 81 -40 122.5t-134 41.5h-383v268h400zM547 233
q119 0 190 111v117h-274q-41 -78 -41 -121q0 -53 40 -80t85 -27z" />
    <glyph glyph-name="amacron.ss01" horiz-adv-x="1198" 
d="M926 1522v-213h-652v213h652zM580 1114q263 0 385 -104.5t122 -352.5v-657h-311l-16 119h-12q-36 -65 -112.5 -102t-182.5 -37q-70 0 -136.5 20.5t-122 59.5t-89 104t-33.5 147q0 73 21 137.5t91 221.5h553v12q0 81 -40 122.5t-134 41.5h-383v268h400zM547 233
q119 0 190 111v117h-274q-41 -78 -41 -121q0 -53 40 -80t85 -27z" />
    <glyph glyph-name="aogonek.ss01" horiz-adv-x="1198" 
d="M1053 -217l129 -145q-49 -58 -112.5 -87.5t-129.5 -29.5q-103 0 -175.5 64.5t-72.5 174.5q0 71 35 134t102 106h-53l-16 119h-12q-36 -65 -112.5 -102t-182.5 -37q-70 0 -136.5 20.5t-122 59.5t-89 104t-33.5 147q0 73 21 137.5t91 221.5h553v12q0 81 -40 122.5
t-134 41.5h-383v268h400q263 0 385 -104.5t122 -352.5v-657q-114 -13 -170.5 -67t-56.5 -121q0 -43 22.5 -65.5t57.5 -22.5q62 0 113 59zM547 233q119 0 190 111v117h-274q-41 -78 -41 -121q0 -53 40 -80t85 -27z" />
    <glyph glyph-name="aring.ss01" horiz-adv-x="1198" 
d="M600 1217q-133 0 -228.5 93t-95.5 230q0 133 93.5 228.5t230.5 95.5q133 0 228.5 -93.5t95.5 -230.5q0 -135 -94.5 -229t-229.5 -94zM600 1694q-64 0 -109 -44.5t-45 -109.5q0 -64 44.5 -109t109.5 -45q64 0 109 44.5t45 109.5q0 64 -44.5 109t-109.5 45zM580 1114
q263 0 385 -104.5t122 -352.5v-657h-311l-16 119h-12q-36 -65 -112.5 -102t-182.5 -37q-70 0 -136.5 20.5t-122 59.5t-89 104t-33.5 147q0 73 21 137.5t91 221.5h553v12q0 81 -40 122.5t-134 41.5h-383v268h400zM547 233q119 0 190 111v117h-274q-41 -78 -41 -121
q0 -53 40 -80t85 -27z" />
    <glyph glyph-name="atilde.ss01" horiz-adv-x="1198" 
d="M451 1366q-81 0 -107 -137l-192 80q33 134 105.5 202t172.5 68q54 0 101.5 -21t75.5 -45.5t65.5 -45.5t75.5 -21q105 0 114 145l187 -75q-68 -275 -285 -275q-57 0 -106.5 19.5t-78.5 43t-63.5 43t-64.5 19.5zM580 1114q263 0 385 -104.5t122 -352.5v-657h-311l-16 119
h-12q-36 -65 -112.5 -102t-182.5 -37q-70 0 -136.5 20.5t-122 59.5t-89 104t-33.5 147q0 73 21 137.5t91 221.5h553v12q0 81 -40 122.5t-134 41.5h-383v268h400zM547 233q119 0 190 111v117h-274q-41 -78 -41 -121q0 -53 40 -80t85 -27z" />
    <glyph glyph-name="emdash.case" horiz-adv-x="2129" 
d="M0 655v349h2130v-349h-2130z" />
    <glyph glyph-name="endash.case" horiz-adv-x="1540" 
d="M178 655v349h1184v-349h-1184z" />
    <glyph glyph-name="uni0308.case" 
d="M-625 1821q-59 0 -100 41.5t-41 99.5q0 57 41.5 98t99.5 41q57 0 98.5 -41t41.5 -98q0 -58 -41.5 -99.5t-98.5 -41.5zM-211 1821q-59 0 -100 41.5t-41 99.5q0 57 41.5 98t99.5 41q57 0 98 -41t41 -98q0 -58 -41 -99.5t-98 -41.5z" />
    <glyph glyph-name="uni0307.case" 
d="M-211 1780q-59 0 -100 41t-41 100q0 57 41.5 98t99.5 41q57 0 98 -41t41 -98q0 -58 -41 -99.5t-98 -41.5z" />
    <glyph glyph-name="gravecomb.case" 
d="M-303 1800l-225 178l190 164l266 -342h-231z" />
    <glyph glyph-name="acutecomb.case" 
d="M-569 1800l307 383l190 -164l-266 -219h-231z" />
    <glyph glyph-name="uni030B.case" 
d="M-788 1800h-232l307 383l191 -164zM-338 1800h-231l307 383l190 -164z" />
    <glyph glyph-name="uni0302.case" 
d="M-776 1800l225 322h254l225 -322h-213l-139 168l-139 -168h-213z" />
    <glyph glyph-name="uni030C.case" 
d="M-551 1800l-225 342h213l139 -188l139 188h213l-225 -342h-254z" />
    <glyph glyph-name="uni0306.case" 
d="M-418 1718q-162 0 -269.5 103.5t-107.5 259.5v30h203v-30q0 -66 46.5 -113t111.5 -47q66 0 113 47t47 113v30h202v-30q0 -149 -102.5 -256t-243.5 -107z" />
    <glyph glyph-name="uni030A.case" 
d="M-395 1593q-133 0 -228.5 93.5t-95.5 230.5q0 133 93.5 228.5t230.5 95.5q133 0 228 -93.5t95 -230.5q0 -135 -94 -229.5t-229 -94.5zM-395 1763q64 0 108.5 44.5t44.5 109.5q0 64 -44 109t-109 45q-64 0 -109 -44.5t-45 -109.5q0 -64 44.5 -109t109.5 -45z" />
    <glyph glyph-name="tildecomb.case" 
d="M-776 1774l-193 79q33 134 106 202.5t173 68.5q54 0 101.5 -21t75 -45.5t65 -45.5t75.5 -21q106 0 115 145l186 -76q-68 -274 -284 -274q-57 0 -107 19.5t-79 43t-63.5 43t-64.5 19.5q-80 0 -106 -137z" />
    <glyph glyph-name="uni0304.case" 
d="M-723 1800v213h651v-213h-651z" />
    </font>
</defs>
</svg>
